<mxfile host="app.diagrams.net" modified="2021-11-23T23:06:48.604Z" agent="5.0 (Macintosh; Intel Mac OS X 10_15_7) AppleWebKit/537.36 (KHTML, like Gecko) Chrome/95.0.4638.69 Safari/537.36" etag="RwcDPbG4QrrqDMneHs7X" version="15.8.3" type="github">
  <diagram id="6-CPc18uqMPHeiJTfpJs" name="第 1 页">
    <mxGraphModel dx="946" dy="561" grid="1" gridSize="10" guides="1" tooltips="1" connect="1" arrows="1" fold="1" page="1" pageScale="1" pageWidth="827" pageHeight="1169" math="0" shadow="0">
      <root>
        <mxCell id="0" />
        <mxCell id="1" parent="0" />
        <mxCell id="OzfSqzoGwiIzfGWavnJp-1" value="" style="shape=image;verticalLabelPosition=bottom;verticalAlign=top;aspect=fixed;imageAspect=0;image=data:image/png,iVBORw0KGgoAAAANSUhEUgAAAvoAAAJPCAYAAAANGHATAAAgAElEQVR4AeydX88kt3GvzydZwYDkCBAMH0TH3sAHgb25cSAntnQEJYGygC5kAwIiB3KysPIBcuENAgTIjfbbzgG38hOLRbKbnOl5p6fnuVh0TzdZrD8Pi8We3nn/17Nnz05L/37xi1+cfvjDHy62WerPvWX/4h/8AwMwAAMwAAMwAAMwcA0G/teaUAp9wFtjhPswAgMwAAMwAAMwAAP7Y4BCf+UbDaDdH7TEhJjAAAzAAAzAAAzAwDoDFPoU+ryWBQMwAAMwAAMwAAMwcEAGKPQPGFR2uOs7XHyEj2AABmAABmAABo7OAIU+hT47eBiAARiAARiAARiAgQMyQKF/wKAefXeKfTyBgQEYgAEYgAEYgIF1Bij0KfTZwcMADMAADMAADMAADByQAQr9AwaVHe76Dhcf4SMYgAEYgAEYgIGjM0ChT6HPDh4GYAAGYAAGYAAGYOCADFDoHzCoR9+dYh9PYGAABmAABmAABmBgnQEKfQp9dvAwAAMwAAMwAAMwAAMHZIBC/4BBZYe7vsPFR/gIBmAABmAABmDg6AxQ6FPos4OHARiAARiAARiAARg4IAMU+gcM6tF3p9jHExgYgAEYgAEYgAEYWGeAQp9Cnx08DMAADMAADMAADMDAARmg0D9gUNnhru9w8RE+ggEYgAEYgAEYODoDFPoU+uzgYQAGYAAGYAAGYAAGDsgAhf4Bg3r03Sn28QQGBmAABmAABmAABtYZeIhC/2e//dXp1ZuPTh++887EbvXd02d/+vz06s3L0ye/eW+i37rTHxfMcZ+++9OfnL5+8/Kt/1MMXr359PTi+Q+KOPzyj//w9v4Xv/txcf1W/o06f/P6xen9xkbyg1//3Nn18vT7f/uLXeh/K78xLjkDBmAABmAABq7DAIV+oxAz2MaL0kvhPG8jch0gLrVluf+YT1UwrxXAeyv0ve1Jt16hn9uZP9bszO2fJuZjuj+NLk9tO+MRVxiAARiAgSMxcIhC3wrl/PQ3Fk57L6T3rt9TA2/+qJ/gP7Uel4w3VixT6F/iY/qyGMMADMAADMDAMgN3XujrCbF/LeeD05ffvSyepu69kN67fk89iY7gDwr95cTz1EwxHvGAARiAARh4RAbuutC3d53rJ7969UPvbufC0TYB9s73y5PuK/CpONO9fKzlp/YmM3+LEGVJZv997FKXPJ5k+s3L+OSU7VlelGPjpv93UNoQ26UxtZGSTm1frPtjXE6W1dLH/BDjtPx/KKKf+3IVs94xjhu/OfL9tir045jznGV2oiyvf82NYm7H+BpS3T76NX9bEdvWNsQY9TnzPuY8xxZf4AsYgAEYgIEWA3dc6FshEQsQM7K8lwrab15/8vY/d6ooVAGuzy3n9DYSVjDlwkaFTCxgVFj5MZJM/zmNmzciM/9ZuAa6pUe69uW3z91/9sxFVfZd6S/zhbXzxaDpGYsw6xv/s+zPfvtX1X+eTXJ7PlU88galLDS9HoqV7I3+1H3JLPt+cPq88EftR/X3x2S7H0djl7KzrBT77N983cvURqotw/zvZfTGHOFsRv813Y2D8j+pmw6eDXGR4pivKybZlzVnz559cPqi8x+ZS//1/Mp1/AQDMAADMAADiYE7LvStQIjFtcD2xUqrMFGR5Qsp9dWxVZSq2MqFioFkY9TFf2wn2f4Y+/p7M+ctfev+dQGZ2sS+bZ2sePOFaexXj1dOtJH27bFLOWmcXixMh1rXNd1m71txm2Pu+3v+/PXyvK9jzwd2PRfOyz6ofebH7+m/rHtv3sWCXYV+9E/Z/xL9vS2cL8ca/+AfGIABGHhMBg5d6OsnNXtFU6/Q0WRoFaU9WbFtr51k++NMW98vnqto8k9QY5v0tDT9H4a4QVJf25j0C9BYBMbP9XjlxIp+arUf9UepcznO0r3WmOdcW9JzzC89P9v11iY02rWkw5pNvb5Lulv8yqf5Gqfs17dB7e1oPKZvckY2xWXfMubcwx8wAAMwAAMwUDJw6EJfhVKvoOldFyStojQVM73XS3yBXRY9pdMlX8c1PVI7FVh+bNknOXbMhZO1XX6iqr5lARlllK/R5HF7hWrf3pZPpYOOI/5IbUudyzFHxtF4Y8eeT6J/TY+x+Pf817uebdZGbWycpNO4/ksyl/ya+mlzPfKNWfa72ZvZzt9Y5DZlfLmOP2AABmAABmBgnYE7LvT7xZCKDL1i0isclwqaBE+rqOnJirCNtkv9ZtrGcZY+m/6pSPfFqBV8KhTVvyyal3xbQrXmQ8nXseVT3dNx1B+lzqVeS/c0zvjRfJY3ODbWkp5jfun5uXc9F/p6+r2kQ7ZvTv8l3ZfiV/YzG6LPsk5lvHRdcfObZt3j2PYZfsEvMAADMAADPQbuuNBXgVw//VOxsFwMWfGjzUDLQa2ipnWt33fsdYRRma1x1q7VstuFfiwYy6KtP4GsXx2Dnl61PrXsqEtPVoxz2W49vmX7Wg/dN53rWC7pOea/fkHfkx2v93ST7unYaxNlqU/vut1v86NvDPIG8rxCP42xHNd+nKQ/R3wEAzAAAzAAA8bAXRf6Ki7Kp4Z1gdcqXFIhVj7pridFuyi1Amatr75ViE8mk0xtQAShCpulTYfaLh2TnVF2bWddqGn8XKTlYmtdJ5MX/TH7qzverla8/H2dS+9os+6bnPj/EeZ/dUfjeF+YX+O3JZmhSwt9se3HlB4+TiOcqZ+XtaS/NgblONk282u5uas5Gyv001hxnJZ8xZRjjgO+wBcwAAMwAANrDNx5oZ8CrMI7v0ceCwcVOvkd4PIPavWc1C70DapcKOVxfSElmbFdq01qq+Iq6+hftxkHOY5XboKSHBXmWe80ZrtYHm27HIOW/2VnrZ++qenZ39bJ5NV9tvJrlJMYixsSbSxkmz96JmOMfLsyDrWt5f3MRZQZORvRX8ymY7QlxmntvuZl7OfH0HmUFTeNascxxxtf4AsYgAEYgIERBg5Q6F8v0FYclU8uR5y67zZWPPrCc9/6Xi++2I1vYQAGYAAGYAAGjswAhf6zPuD2lLR+SnzfQFDo33f8+rxiF76BARiAARiAARjwDFDof1/ol+9u63WT4z35ptD3E4BzEiIMwAAMwAAMwMBRGaDQ/77Qr9+TP16RnyYyhf5RJzN2sVDBAAzAAAzAAAx4Bij0XaHvHcM5EwUGYAAGYAAGYAAGYOCeGaDQp9A/3TPA6E4ChgEYgAEYgAEYgIE2AxT6FPoU+jAAAzAAAzAAAzAAAwdkgEL/gEFlV9ve1eIX/AIDMAADMAADMPBIDFDoU+izg4cBGIABGIABGIABGDggAxT6BwzqI+1UsZUnMzAAAzAAAzAAAzDQZoBCn0KfHTwMwAAMwAAMwAAMwMABGaDQP2BQ2dW2d7X4Bb/AAAzAAAzAAAw8EgMU+hT67OBhAAZgAAZgAAZgAAYOyACF/gGD+kg7VWzlyQwMwAAMwAAMwAAMtBmg0KfQZwcPAzAAAzAAAzAAAzBwQAYo9A8YVHa17V0tfsEvMAADMAADMAADj8QAhT6FPjt4GIABGIABGIABGICBAzJAoX/AoD7SThVbeTIDAzAAAzAAAzAAA20GKPQp9NnBwwAMwAAMwAAMwAAMHJABCv0DBpVdbXtXi1/wCwzAAAzAAAzAwCMxQKFPoc8OHgZgAAZgAAZgAAZg4IAMUOgfMKiPtFPFVp7MwAAMwAAMwAAMwECbAQp9Cn128DAAAzAAAzAAAzAAAwdkgEL/gEFlV9ve1eIX/AIDMAADMAADMPBIDFDoU+izg4cBGIABGIABGIABGDggAxT6BwzqI+1UsZUnMzAAAzAAAzAAAzDQZuBuC/2f/fZXp1dvXq7+++eBNn/4z785/X6g3b/81z+ujvfqzWenrwdkffP6xen9J95k3LvP/vW//27A/y9Pn/zmvSd+KvHB6cvv1lm8BWejPvvy3z8f8O2npxfPf/DEvm0nrj0k9F/+8R8GfPb3p28G8sEf/uPTAVkvTyP5bNuYb6v/08/N/fKzB4bRAT5g4PgM3G2hD5zHh5MYE2MYgAEYgAEYgAEYOJ8BCv0nfqoOrOfDiu/wHQzAAAzAAAzAAAyMM0ChT6HPqxgwAAMwAAMwAAMwAAMHZIBC/4BBZac7vtPFV/gKBmAABmAABmDgqAxQ6FPos4OHARiAARiAARiAARg4IAMU+gcM6lF3pdjFExcYgAEYgAEYgAEYGGeAQp9Cnx08DMAADMAADMAADOyegQ9+/fPTqzf81PPMRmfXhf67P/1J+E36y4Kb5X10+vCdd3YCdP0b7Jf81nS2Ub/rfpnPPEyS3dLPJt/L0y3+PoDX0Z9L3/z3Fi7zRfw7BOfaKl9Jr9//218ssPju6bM/2W/ct/zu7X3K8/gb8ss2jD95eEobRsbaKuYjY12rjWL1xe9+vMDZ08boCH69Vrz2ItditKe18mkZ3Usc0KOMO4V+6Y8RPu6i0N+qwMmF3+XJKy2e5xZ6vcBIv0vs3ULGOfqpeL3cJ7bx2boo2SI5bL/wWRG/XCRvV+hvr39KOCM2zCemHoNPff06Plv2x9Zj7rHQ93G8Ri718jlv87bm9605JA7tOOCXOb9ssZY/ms8fqtDfMrhrSfKcsbYo0reQ0dP9mrLzmBT62RdzCXCt33UWbgr9Nb/P3r9OnLZladampfbXyKVL493jveQjfQOYj5d9Q7nm90fj8B65eESdKfTnczmF/pnv5K0lyXMm4BaF9BYyerpfU3Yek0I/+2J+Qi/1vc7CTaG/5PNz7l0nTtuydI5dvT7XyKW9se71estH6Voq+s/99rMl0/vn0Tj0tnO+33xBoT8fm4co9FWg6klI7/WSlPjSaxSxvV6lidclT8ee3NGkIfkab7Sfb7eFjCyv/v8DyVavn006/X+Al2/9l/tHIKO8/AqVLSpZjnyq47mLmXTZIjlsv/AtFcl2T/Yv/+ej6Ff/pC/eiz7OMZCv5o5LNsT439/nLWOuuZlj6n0/HifPsoo9k+nlPTuV98p5qxibTsaLb9/KZXGut+2Yj3EatzWedORosax9pBxhcVcO9fnZfGftUv8fPY//763MB36MzH7JZisXa2wxEV9HnOFsPN6yXzb4vCcOS91beTTb+d73/x8q2eF9IZ2inS1fqC1HxWDbo89/+HjMtw9R6HsYlhaVvNDlBdMmdp1AluT48WbOVQjUiXosmGmsLWR4OT6RLcteLvhUJJQLwAenz799Hv6DoCVmP+6MD3ttt0gOeUHY6j9yL/tMtizrbv6Kfv3i9YvT++Hbqu31T1yO2SBb7u24lc80dzzX6dqXFf/PTmtjai6lYiTH3eLQKk40diuv6F6SlXWrmdKYWYa1aY03G+Nr5NJZHfbevucjW7O0XtVxS3Ypxjm+tp70ZMoXxqEV0Yp7nYuMu1dvpEOSXbMhHdY409hrR8kr+Xv39PG3f/l93hOz3m7ZJHvSOLq2plvp675f13Tn/ng90/JVzeBl8lpjHO0ahb4rhmwil0W9EopPDAmCtSR5Dii9sWZkbSGjZ9+y7KWCb+lenKS2SPjkPGN/r+0WyWGtAOuN3b8+5pcl3ZdjUvp2e/2T/DEb+j4oddxbu618thTDaPPamCbLF+bmw16/JUZ0L28YTFbMb/Fz0tnGK/NltGXkc0v2SL9HatP2kc09X+ymdmXRrTj5Qrwd4+hPi2/8JqjMzz2uxajWzVHOog69z21/+FzSy0u1z9p2lmu89Jc90qs353Sfo4/JNuc95vB1378U+qHQ90kzgdOb4OuJpu/0HpC9sXrtW9e3kKEnMrHYXpbdS6x9H7b0743dbjvu4y2Sw/ZJve8zb++y7rbwpqdRcRHyMtL59von/4/ZEHW5l89b+Uxzp/XqQPTF2pixiIr942eN3eKjd6/Mb3VxlMZY0zPq0ftcjjU+p3vyjni95aN0LfJUs9Gfny2Z3nft+JaFvulQbyJiHh/jbDT2pQ5eZ51rvLiGpfvRLvu8vGGNfTTOcm4etYd28ufIEZ/P80KhT6EfXp1JELUTqZJnq2BYKvjmJmZ77JEEsNRmTof2ROol+6Vxl+/1F2Hfb113k5OKffvXXrS21z/5acwGb889nW/rM2M7x6lVINWFSPSX8bC+sVO/pXnbuxeLwHpMsyV+E6AxZ45xrJm+j9LWCmrNbzvGh1Lmi3I+Wnzb+WDN7232y/zcl1HyMcrZSDx7snzfpTZmV/ZJ/Ozl6Lzl/zyPsyy159heQ7fwy/p6eL2xt9D/FjIo9Cn0r17oLyXdGvpyIanvnzeJt0gO7YXvPH3MrnJR7tk6o7t8HZ/0Jdnb659sH7OhZ9ver1/HZ89OKpzjaxYjcVLf9oa75lFMtNr37sUCzvxQFppbFPnJ3jjW3pm4hX4zPvLMpvP2hmDd715OtrnMz329ynajnOVxao7zvVJ2vp779MZLbaNd9nm5WI99WmNyLfv/mr6YWQ+vqcc9yabQP7PQv8bEX0pOo1BtIaNXvKWknp5itAqGXh/T2xLzWGFwncJxi+SwfczHbJ3VvcfArJwx5sZsWJMlnVuFr+9rNrR/ESO3M536rI4vSNvHPI/di0fvuuyTD9rzMMtXe/m21b53ryzg1gsrjXXOsRyr1v8cmUfrM+cji9cnv/ng7a/ItF5fSf5ZY7t9v2Shx2q8PsbZaOxtfvc2MBb7Xl6qr5udy4V+tOdofN2TPcRidJ7kdhT6Zxb6Blv9H+IumTC9ZDgjcwsZabyY/NLnb15/cvr6rEJf8qK/Wr+6Y0+aWk+kZ/wQ226RHNoLX55Mccz1z/Wi0+qzpHu6FxfyGDvJFBtjG65Ru8ZskA69o+lsT4xbBan6abO5xIfsTIX+pbZuFfMkJ9plttSv70j/nu7KPVGefBSPktdq37tXFpbbxDjqpc/lWKPcPVa7WR8ZW2k+1XzJ7+Io5g/db7NfFvp6wFMW3dbG8zvG2XhMpbsfI+nS+tUdz73ZVBb1rWvyQT7aHFjyZ247bgd95n1lsS9jiB+X/fgQhb5N5PJrZ71f55NcK5n2ElQCK8otk92y41tgLo3Vat+6toUMyc2LhQomPSl67/vXfXwb+VRHn2CTTCVn3e8nTSXVHDMfJ+k3c9wiOVi8+wvnqD4jPlMcs6+yLyJnkcO+X2diMMrvNkVgtnfZv2Io+qD0feYnMli2W7dxq5incWPcl2yQnTn+2S+6t2ybzdXcP/Pj+ZDfo6ykq9dP7Wp5ly+4cazZGD1C+1kfiZGyEK55j7nDx7zNfiz0k8w838RHzNfiZ42zmVhKpsZsbf7lh9wmzyONZXaOcRzncJK75mONw7Hm7xyfWEzH4nWO/CP2eYhC/14Cp8QVk+GM/lvImBnvXtpukRzaC982yete/FjruU2hX8vdh1+Jef7VrLqgUYFXF08z8ZwtYmdkP2pbFbiXrCWP6jvs3kfu7cVhi7W8J/uo1yn03as7tw7yFkX6FjJu7YdrjL9FcqDoay0AFPrX4HVPMpeKRnvCSaG/p3glXdg8tXIV1/bG6Tn6bLGWnzPuPfeh0KfQ//41nHsGeU33LZIDhX5roaTQX2Pv3u/r4UF8oq8NQLw+ay9FaWtenX/N8hSvNsxySPvzmXtK322xlj+lvnsY6y4K/fx+3RGTV/0u7SVft2pRPrbPxhLS1r6wBTS/6+zfZ93DZH5KHexJbvbFpcXeU+o+MxYxt7lWzyWL/bm5Cr+O5bAZVvOcPOI6ub2/ZnxL2/34n0J/Pha7LvSZXPMBxWf4DAZgAAZgAAZgAAZgIDFAob+jV3eYlExKGIABGIABGIABGICBrRig0KfQf4h39LeaMMgh+cIADMAADMAADNwLA6uF/r0Ygp5MOhiAARiAARiAARiAARjIDFDo80SfJ/owAAMwAAMwAAMwAAMHZIBC/4BBZSebd7L4Al/AAAzAAAzAAAw8KgN3UOi3/uQ2wD4qsNgN+zBwFAaO/TcY4PQonGLHnljm5zXneaTQ54l+86s6+53r2b94aQt3+g3/c39fe08JZR+6jPu0/q3z+ve09VvbX/zux82478Pm+USG3vfoMwr9PXN7zhqQc9Ds2nGP/KLzLfil0J/njkKfQr9Z8J2T5J89Gy9KL00Q5+k3P0Eu1fPy/mM+1QK79oerKPTvkYGj6kyhf3l+uB4b5+RY5aFXb65f6J+j3579jW5jLFPoj/nJ87RhoZ8LkvxXWbd4ssurOz5gW51bkuz/ZdO9J9G967dVnEblmD/qJ/ij/Wk3nzzx2aU+O26hnwveOCfvx+a959i960d+uDQ/tPtT6Lf9ssTbhoV+PbhNxEuL/esU+km3b16/OL3/cE/0tSHzT1zMx94fe0+ie9dvadJd4x7+qPPPNfz8qDJVuG77St51il7TNRbYT8uH/PXV649P5bds17H5GlzuPafsXb9rxOTeZKZvkH1dsYX+FPrzuWyy0J9NUlsU6VvIKB3zyK8v9CaJFia9u52TqPlf39LoviasfKn7dmwvsiYzf4sQZUmm6Zjb5YWy1KUcM7X3m5cy5pLdOsr2LC/KsXFTkVPaENulMbWRkv5tXyQ9SlkvT6U/xuVkWS19zA8xTssFW/RzX27Ln+laGi/FTTamc+/ncvxlW42Hj04/ff6T09dvFOf3Tp/96fNTilnmo21r6ddnJz8HSr/ITumjz5kl2RBl9vxwpOvy1Xa2m59j/C7xmXLH1sXFrE6Zk/97+vI7z1HbZs0T5aDok3TfbCrn5iWxUDw1ZpRlOiXdl8Ys70lWz//Rzjim/Nxv1x5P486uAbO5pa/Xs//Jbynf/+j05XcpT1nul5+jT6KsGPNnz8zW5CNxLTuVPyVDn+U/rUNxzHw/57RrXtM8mI3Lkk4+fy+1416O8YMV+lrAL/2WITvwvmAy+9uTv7yXEsg3rz95W1gpiSjZ6HPL9t4ktGSXFzwlgJjolRT9GEmm/5zGtQSX5bV0GbnW0iNd+/Lb5+7/LuTFJfuu9JeNZe18wjY9Y7EvDsvrP/vtX51ePP+BG9c46/lU8VDyj0evh3whe6M/dV8yy74fnD4v/LHOf4pj4if5Ufqnp5svnv/Z2wI9y1/3We7/198XHUlWYqfkwGTlGGnxLTcDsjH5K+tRxlNtop/a8Vz3h/x770ez3/vtEtvN5zkGl8hSTthKt8t00TxLjKa5kPNctFm5wOeymmP5XcVj4qjH6DpjtXzp62ORxjxnDbC5X39bbrk926kxs2+Sz+WP9dxoPsny1u2uYzqeW+zhhS9Yo/72+dOTz3P6RkfjWH6XjV73OiYq9C2v57Zmt/xj/Xzckh+ibuf4Zrs+pqNn9xLZpS/rmF4i+6h9r1rox4l9nhMNkjIZnBNcwZYnzHn6nDP2Xvos+9InaC0sZaFjCcoXUtGHrUmopFPK0sKc49FrF8dIn7dI8klOS996PPNbtDv2betkPvOJOParxyt5GWnfHruUk8ZZ9nGt65puvfs2920xMv31jUXJUFvvUo+yfxkL62/jtGWJFS2Mirn0yT4q+9s4Pm4qQspruX/PF0e7rnjE+TBvZxnn+f7Z98bbfh7gaJ6ldSudf/X9a6Klzb25LR8rZxqb0b7lfN7zZ8l59qFdz/OkPWY5f1tj+HVE9+UP2aPrUZeeP9TeH2Nff2/0XH62+qKfW0b0VxvLD+YnbQw0TrK/Z6NvY/qX+sgmjSNfGvt5HU3ttvCNxtvmKH9EhjN/o+P0/Dfa/xHbbV7oK+HaLjQnjfOde14y8+NpYly+MM1D6fW4/fmyL33C6CUK36ZlT2sS9mTFtr12rXFm2rb665rYWH7a0Pab+lrCLRdwyU/H5DPPXvzs27bOo59abUb9Uepc8rx0rzXm0jVvo+mvBO8LBXv9plU41/2VSywW6mN2p3v2TYH3s/SLdpX6lD5Qn3RMOmihTp+jHN/20c7lC++feR/058y4LBUQ4qMfz3GZl8uQf/SAKrHUyhORsaxjmXPa87tsk/su6e/nX9lOOquAbI9Zz4s4rp+7uteTFXNbq69kxGNPZmy39Lkcv5dbftAtnH3/0n+ln33OGY25nugr1/Xs8LKtzRbzqmSjN/bsdbO9fsgyI8f7fKbfI7ddLfQFUXwtIH/uJ1iBvwbqcgDOSWYlpIKrVQSUY2vR0PvVdlTiU9uWT1qyNW72VQ24fOTbtBbP0TGlY/u47Mukr+zoJdHedY3XmoQtP2R7Mz9+fMnrHdf0SP3GfWZ+yTqVT0eUcLVoSyfFzviIMkqG5Ndzngq3fCoddBzxR2pb6lzOk5FxNN7a0cdScfCFjvljzGelXtZHOcXszoW+rnv9ZLPiV+pT+qDVT/M/jZXj2O/nZeTzsdwiXTOLiaPIo4qtkjHZpzFHZckffsw1O73sOK7GXz9eXpBk3XMe6Y3bykNRd29X9kft/94Yui45kp/0NJ+Wm1s/T9TXji3Oox7WRmNYvzXO+j6POvdySu+69G/Z1PJ99q9i19dNsv1xTQ/ftndu/Gj8ls/t3oj+8l+d5/JalO61/GP6leNr3WnltNKe0m+mh2yazVNjuUXrWI5hu1Yq9fSyI8vjepYxG+8XdXmkz6uFfumMEqjyXtvhl0/GVjJrj7Wsj8lZfnJ7jtx76rMUv/JeL279JGV+aE3CnqwYr9F2qd9M2zjO0mfTPxZXbQZbiX09KVuyWyukvI4tn/r76XzUH6XOJbtL9+J4a589J/JpvQCWRU9PZml/uRia3WlRi+/+Z9uiXaU+uV09vp8Tdl4WVUt9j3tP/pthuPZt8o/372X+UiG2l/iIuaxPsrX+Pyp+npQ+KnNOe36Xbcr+PX/2fS6d/ca2t8lcin3Lprb+tY6tvj27RmX2+qfrY7ml/0Tfyy79Z36WnzRnRgr9zEyZ6/xY8dz7Ip1r3Njudp/NH2ljIL7O1aWMWc3QuXKP3O+BCv0ExHaw3SsUlhDq3X6ZpHqF43riaU3C1rWW/3wybN3310Zl+mRVVYgAACAASURBVD6j57Xs9oLqk2uSPbpI9WLQ06/Wp05uUZeerBjnst16fMv2tR66731RxrVcAH079Y3H0v5SR+/Lng/i9VKfvg1JD2urX/yp503U9eifzZdb/YdXY2Fkczzi1211W+ZiTR/Ns1y0WU794nf/p/jP6CXbecx4PTJs47fz0ppubVl1zm+3K+dfa6zWnI72tPqlazbm2DwbldkbK10vZZS2eV3KdjlOXrZiXj/Q0DhW5PZk1ddLffxY9bm1/eQ3H7zly3NXt23rf712pttWD1lrPz21Pfc33lULfQtI/brKHFAGyZbgpkSUdpZbypyz6ZagmD/LHb9d8wtuK8mb35a/cmtPQm2wlvvmjViZ6JPM+BRASdXrfE4Mkp1Rdm1nzaDG9wzp2rpOJi8+LZv91R1vbyte/r7OpWO0WfdNTpwb5/7qjv3yhvJAawGUPks+K5kqWTV9xUt5L9kk+T5OpT5rc1Gx2qq4XRtvv/e3z5vbFvop3optmd+e3qct7uxVjP93+ur1591fe7J5WHPcnt/WzrOtebx8rOW39G2NWefG2repTe3/0TVA861cK1q5UTov5Y5lP4iXdv4oc8u6/tKnlefEZeteL+bjr+5YDDQ/47qy5oNr3pdPttSpXA9q/q5pz73K3rDQ1wT1742Wk/U8J52bzJYBSJO4TkbLfc7Tf48ylbRyrOJikSdobjPir6VJmBNRltlK0rFdq02KhZJnfk/wPN7ieLWdLbZ7X0GOtl2OQcv/srPWT0/Ceva3dTJ5dZ8t/Jp8Kj0lb22Rk306WnvFeWQxTnOttlVyNH9Lfdbnp/iIciTvEY7icVsf2Bzoze9z/Wq6ipf1+J47zlI/+SvmVbFU2rycC9I4raJbrMcxlvTK99bniWzQfExHzeksp/avn/uxnez3MktfJHnr/pBczeUsr85nats6Wn+xYj6RPmWhb3Yu6S9/2RwxG+Qv6Znnz4iNpT4t/f01jSH9/b1bnS+xcK5OZcxq/s6Ve+R+k4X+LZxqsJ+XzG6h72OPecxJCINHToJrttniPldArMnkfsqTVuzsqTAhLpevX9co7ojLelxU6OfNxHqfe/TrMWuM68aKQv/ZdR18jxPpEp2PWRRR6F/CxH33JfbXix+F/vV8e6t1zeYLm7en9/+jbLAo9OfZotCn0K/+Euv44lO+u62vLo/37QvF3jgT80lov7LLr9/3q+e9+pxC/96ZSkWXf4Lcet3l3m28B/0fye8U+vP5nkKfQv+CQl/vT+d37o9X5KdJRaF/D4vddjpavEffSd5u3PkEft9jU+jfd/yMV/sWV2uA3nd/NJZvY2/2/eP4nUJ/nrU7KPTnjTpC8sQG4g4DMAADMAADMAADMHAJAxT6PNG/6In+JfDRl+QFAzAAAzAAAzAAA9djgEKfQp9CHwZgAAZgAAZgAAZg4IAMrBb6v/jFL04//OEPCf4Bg88O+no7aHyLb2EABmAABmAABm7NAIU+BTybOBiAARiAARiAARiAgQMyQKF/wKDeevfI+DzBgAEYgAEYgAEYgIHbM0ChT6HPDh4GYAAGbsAAP69JEXT7IogY3FcM+HnN+XhR6LPA32CBnweVZIzPYOBoDFDow/TRmMaeazNNoT/PGIU+hT6FPgzAAAzcgAEK/WsXRcifL4rw2b59RqE/Hx8KfRb4Gyzw86CSfPEZDByNAQp9mD4a09hzbaYp9OcZo9Cn0KfQhwEYgIEbMEChf+2iCPnzRRE+27fPKPTn40OhzwJ/gwV+HlSSLz6DgaMxQKEP00djGnuuzTSF/jxjFPoU+hT6MAADMHADBij0r10UIX++KMJn+/YZhf58fCj0WeBvsMDPg0ryxWcwcDQGKPRh+mhMY8+1mabQn2eMQp9Cn0IfBmAABm7AAIX+tYsi5M8XRfhs3z6j0J+PD4U+C/wNFvh5UEm++AwGjsYAhT5MH41p7Lk20xT684xR6FPoU+jDAAzAwA0YoNC/dlGE/PmiCJ/t22cU+vPxodBngb/BAj8PKskXn8HA0Rig0IfpozGNPddmmkJ/njEKfQp9Cn0YgAEYuAEDFPrXLoqQP18U4bN9+4xCfz4+FPos8DdY4OdBJfniMxg4GgMU+jB9NKax59pMU+jPM0ahT6FPoQ8DMAADN2CAQv/aRRHy54sifLZvn1Hoz8eHQp8F/gYL/DyoJF98BgNHY4BCH6aPxjT2XJtpCv15xij0KfQp9GEABmDgBgxQ6F+7KEL+fFGEz/btMwr9+fjcbaH/s9/+6vTqzcvVf/880OYP//k3p98PtPuX//rH1fFevfns9PWArH/9778bkPXy9OW/fz7Q7u9P3wyM+Yf/+HRA1ssTPstc4bPsi1dv7p+zf/rO29M+33Zufnp68fwHNyii5xeDpy9wKPSf3uf3wAU6wkWfAQr9vm963Nxtod8ziOvzEOAzfAYDMAADMAADMAADx2OAQp+v7HnaCAMwAAMwAAMwAAMwcEAGKPQPGFR25MfbkRNTYgoDMAADMAADMDDLAIU+hT47eBiAARiAARiAARiAgQMyQKF/wKDO7vZozxMCGIABGIABGIABGDgeAxT6FPrs4GEABmDgBgzwqzsUVccrqojpdWPKr+7M+3fXhf67P/1J+KnKx/ypOvnhk9+8d4PF+IPTl29/kvCj04fvvHOD8SPUps8Xv/vxlC6WHF6evnn94vT+gYo6saGfmu3Z98s//kPx06q3YSnG8rE+xxj8/t/+Yorh4xUQFPrHi+ljzWni9/TxptCf9/ldFPpHL0rsbwL0C2kVc7fxA4X+XDI/byMyN0Z7oqdCslfoS/5tWWrr/ezZ7XwmvzztkQLX/I0fnpa73vzjOnG4HwYo9OdjRaE/+XRXT4b1BFXH2SfMPrHsu9C3xXitgPT2XPd870Xh7fSj0J9PgNdltacPBa75HT/chr8el1wnHvtngEJ/PkYU+mcV+uUrRCr+zy2GKfRnwL1dIT22CNxOPwr9GY5u2ZYCl0L/lvwx9lgux0979BOF/jyXFPobFPppMlix/vKUXq9R4d96ym/v6abXdKwg1DcC9TG/yuNft7D+L9++b93aWKhtlpfl2KS1cZOe0tnaxnbjMK2POS5Lr3Fk/ctNle4n3y7pX+tkPmu/Fx1j0fOFFWgt3UpdbKzc7uWpxcJ6Eo3jLcvZqtD3jCUberpHm1vtoizv/9jf+6s1bh3TGKe8ydIclMzbvPbW455C39jHD+s5oMcQ1/HdYzJAoT8fdwr9jQp9FRZWUNgCVhfiVoj4YiclKyt4YtGSg+kLnNw3FzVKeCqcfFFjhZYvlnNRm2X19M06aIx4lG6+yEvXvvz2+fR/NJQPvazaJtP/q9cfu/fRR/RvFxUt/c1nZTzUrozpu6ePv/3L8J9767hEn41+/uUf//b04vkPvvdjyz9eVtK71K+On+zwjGQZpruXofaZlSTTfPnqjecqcfxXhb4pdn6ctqwkb91nNQfPTktsv3qT42d9S12zzbWPrn+vzeL1x72FrUtj4ofHi/kSD9yDh3UGKPTXfRQ5otDfqNCPxUT8nBzfA9Ta5sIkBqlXIJWFXa9Ysuu5UKuLuTTemg5RJ33u2aT748feom/Xc/HZ1l9FsC8sy7Hb8ksfagLVvmy3U3t/rPuWevi2s+fRF2X/ER3FUstPPQYiy5fEPOnoi3DzzZrPevft+hrbSzZvF5syFsty2ywu95mRfy9t8cPjxfxe2ETPvbJ5yfqzV5uurReF/gaFvopM/yRaxYW/1ivEegWWgi9ZsTjz8qRDbJNk+Ha9p6drOkiXeJRu8elubLf2WXK8v9Sn1K1d9C31NzmtoqItS0+sYwHZ0k065mNP5jYLRxnLUubSPeknP9Wc9DcRsc/IOBovHstYSv9ln82yneMm+Xs7tljcm45PoQ9+iPODz0/BHWPcM2cU+vP8UuifVejHd7DbrwWUBZEVM3WBtf40PRZamqRe/hL8qV1+itouqtoF2ChQJlPvQ+exRvs/O/VsTLaabvJxW//eBka+qov3PGbWu4yrCsYl3bJ82drTT/fHjxo36pe/3ShleR5qvaytZNYc9osu9bGNTr9dPWbkQv6N314t+2yWbcWt1qf01+3uz/hwLzpfQw/8cDsGrxFPZBLP6zOwtB7g/7b/KfTPKvRVdLadKtg8kHYeCxzrv1Zkq9CKxZkv7PxYGl9H365XEK/pIFlrR9MjFXRtW3v9ezam9qVu7aJwqb+N2Soq2rJqHUfbpXjOtO3zI3ti0VrGsuy/dE82SW5kqbUR6vUZGUd+iJuSMpbSf9lns2xHn8mO/RxbLMoXj3TED/th8pG4w9Z75m5pPbhnu66pO4X+FQt9FU/pSWgqjnoFyBq4veKsLLh6xVK8Hj9b0msXYOclxDV72kD3Fv14fUn/pQ1YlJNsa11r2WztYtE6Z0dLbv+axaO2p4x52X/pnnTtsZTu9xiI13u6aYx0NAbsV6j89SjL7q3FoR1zbSbyK1XWrjfPvB63PV+zt4zrbXW9pi744bixvSY3yH5kbs6rLx6bGQr9qxb6Kp7SE+66aNNkVfHVK1B0Pz6FjYVdqwBLbcqn6+2iqV2ArU+O1K+lVznmupzki1ZxWNtU6y//5IKvNV67qNCYy32zbmWMWr+60/o1mJY+y9dqvUz/9BpPb8MReRBf/ihfxZhZm7pQVvvSP9Yuxtj/6o76eX8Zi+1ve+xef47UHMjP/pujWn9v+37O2yzuR79lNrfTEz9s58unihnjELPbMkChP+9/Cv0rF/oqeHrFmZKGCrv8PnYuYCQjFmetws4KIr0L3SoK60I56WD98pjSa+SYCzgbd83WJZlLflC/OF7yWfSN2uZjv6iQf7Pv2xuzul2vMM1FuWSWhfLYRI2xTDbGmMc2Gi8d85gqzDMXuV2Med227dt1G2Mskz59ztblRVtrzij0M+9jjN22fX9O3lave/AdOsLIYzJAoT8fdwr9yUJ/NrmoOMxF13yQZsekfcvHFBVw0eLiFtdg0VjED8zJW8w/xrxn7ij05/ml0L9yod9/gjkfrHuenLfWnQ0XvN2awTw+Ba75Aj9kJpif+AIGRhig0J/nhEL/ioW+Xl1ov/owH6yRSUAb86t/Xzz5xF73ia+pEAN4uQUDFLjGHX5g/t1i/jHmPXNHoT/P710U+vl94t470fOGXxN0/y4xRf6tYmNFRGaHIv+azCN7nfP4f0v8f1R+TP9R6D9m3NfnCn7BRz0GKPTn2dh1od8LNNfnA43P8BkMwAAMwAAMwAAMPBYDFPpXfHWHyfRYk4l4E28YgAEYgAEYgIE9MUChT6F/2hOQ6EKChAEYgAEYgAEYgIFtGFgt9HH0No7Gj/gRBmAABmAABmAABmDgKRmg0OeJPk/0YQAGYAAGYAAGYAAGDsgAhf4Bg/qUO0XG4skEDMAADMAADMAADOyTgTso9O3P2vOXZfcJEBObuMDADAPkM3iZ4YW28AIDngF+XnOeBwp9nuhf9FVd+m3wb16/OL0/4Uf9IbHZfn6ycz4/2fHZHnxGoQ+Ht+Yw/o2RS/4+zfV41jqx9rdQ+PsUt+bpacen0J/3N4X+RIHKAlUDtvdC/xz9iHMdZ3yylU+uVxgRo61iNCbnCLnl8qLpOjyryF/7Jt+K/Es2KmOxZm7tx0+XM7sfW56Kq40LfZv0eQf+8nT5X4bdKpGYHOmTYGk9UX73pz85ff0mJ470V25bf8EyJZh8Pcn+f6cXz38Qno6PjZnGyLrY0xbp6UEYGXNUfy+3f27653hmv6jP3he7vesnP97bcZSzMbbH5snomCPz5NmzsTHH9J9ZOGzctQLm3njYu74pjjmPvSzOW7l2xJ4j5JbLi6br8Jx8++rN2l8zt7HzOjwzD2k7wvge21zO7OPFfsNCv1w4EyBKrucmUoNsq0SS5ORivFzAc+CtmMgJpiwacrt0XYt1LEDy5BgbM+mSk1XtR8kbGXNUf8nsHW0yvfzextSuFc+kU96kZP/05D719b3r99T+2Gq8Uc7G2B6bJ6NjjswTK/TX88GY/jPc2/xW7tgqHknPPc/Drey8XI49SMn5diZ2Zdsj5JbLi6br8Dzm2+uMfTljJSePLG8sjnP+upzZufGOEL/JQn82SdpEvCypbjOZR4uEBFFeMM3eelEun7obeHlzIDBGxxwrTMbGHNN/DfR+nJOu/kmLJvKPnqdvQvKTMr+5Mz/ke3qy1ubCxlabV+7bFfnVjv12vfEkM8d3zQ92P9mYdNVGJ537Mbytz5719Up6i5Wffu+vxM17p8/+9Pnbp4zRJ+bv7LvIosmzb1rKtuJR+uhztlk2RJmln3N7f32Us6ST5Nt49bdCdj3rJ3/78eS7HDuzS7JzW7uumMjfH77zTvFt2+iYI/rnsdu+Ku9vk8+8TMW99sWIPo/WxviI88z8abFJ7GiuW87IbGrOKJfEY+ZTfjWZuV2WZWNmfaJsH8+8kSvl+TZiwpjPOcPna7XR0ecPXZs7Zp57PkvyZJvmpcZI7NY+e3bqXVc/O+axy+vyfTqaf7P/6/xjeqe45Dyc2vf0yrLKB2F9Hbw+j3WuuC8xOOu3y5l9rBgk/x6+0M+g+cRXnqdkWSfHsk2a3J/85oPvCzI/2f15Sg6x6PX3dZ7G1AKta/WxTj51G0tIH/7658XX0a12Mcn2Jph80Wof71lC/qR63alfoOfkWy+2lrj9dUvCZXJWTMtE/O7p42//svpPwWMLxvLEl41ffvv8fzj59PTV649PL57/2Vsesr7r+itJffX6r08fvmPtk6zEQ15wUlFq97yNsjuPp42DsZqv2+KmvjFminvLt7rXO0pWiy9dS9yMsJ03O/Vck6x9z81y89DzWXnd4prsKq8vM9hum4uY1lxt9zlnnCP1yYV17R+LTWKvN5d8n7XcovnqY23zwhf7OYY+Z2qeKa42V9M8ybkwtkm6pTFTnsp6Sr4fM8fTZGSZuV9us3wt5zDlGxXX+fNYoZ9tbOcD86Psabfx/lEOzbHUt9KlvX7cHCuzy/etY5c2JH/beGV31HeP0k7zqvT7Mld931zObF/2uTrtvd9VC/1Wopt3iEGSJ+B5QUpw5MRjyaIlM036PLltbCXbrHu6vv61/9iYpovGMIhbSXlszDH9l31oia+lQ52wLfnFCWx+y36M45nN8X573Lrt2gKb4zT6ZCjqV372Nlp89CTHdBNXI/qX/c1PZX/zZVtWvVCV8rLeZf9WPGq/er+tnSf5OX4mXwznvjaGrvfYTtflAxUJ9zU3s9+z7b1r5quWfet9vUyTs+WTsrnxvS73dL7Evfk0s2h2lXMp27qWh9r3Y/xNnzqOZTvTIf6ft7JNL37KEZqHvp3di/k72+jbts/bPotjqhaIOrR9NJq3l+1vx62Of9u3UYe6X9sfM757pLbiPDI874PLmZ0f895jfcVCX4G9JImkgCxP5tEApMmcE7jJjEknyUqJRwWMJada/3jd9/H6jI1Z6lL2yUCOjul1iX28bkvnlviWC30VKu1EbbHP/s522LitpNm6Zv3KMeZ4KPtGPcY+exnlAubttK99xY73b91fTJkt6mN+T/fsm4KW/yymOVmW+vTtSTr4YiLK8fqOnCd50rvP2RjbJfNlH6/LyJhRF9/Hyxobs9Sl7NP3tR+nPjeZmj/1/XW5il2Lj3PkPVaffp7prTU2L+t8mNjqx6AX5zi+zyH92Ld16I1RyhEvrfXu8qKprYPGFOf6HHXo+bB3vWS1Pba1iX7OPomyzbfKybldOZbVBuW3Pf22sS+fzVfJ98mH4uIcv1zO7OPFbbXQVyGhr9LrY2uC2CRLbePEng/s0mQeD1iazCpMlNBbuiUQBaElp9o+u54Tf+qTZWedxsZM9q1/OzA65oj+azFoLypmV0zYabzWYte7bmO3krDFuebLvqLVGHH8NVuW9cixWpLjZWg+GDt+kR7Tv0xS1kfs5AUnvhKU9ZT9YrTUJ7eL9qifmE9jyaex7cjn5BPpYLLreWLzbJ3tsXliC+3amKbL087NEX/lNhZz2ZGv92MX2yTfp3myFj/FvJxT2TeSK4Z8u1p2zum+nXiSrNExZYOXVftkbEyNPXZs5R75vh2bXj70eSGO3fZDft1Ec17fYNX+lk52bOvQ1rfl2+TnGKukc5mPyjGjTe3PbR20xiqm8kfUoefD3vVSh97YyQ675/ny597f5ttW/qr9YW1zHGVfqVfdL96XP7xO/kGM2h9tbmY26zwkm9eOlzO7Hp81He7t/mqhXxq0lCSz8xTMcydBOebSZM5jln3ydelSTqg8UW1ylf8Jp9U2JYbR9+BHxrzF+8mjf9RqaSLFe8lWnzQtDmuctO63ruU45vjO8dDWryW3f83LUOK1Bct0Nvv7T/Sz7nFhNVu06OcFZ73Q14JZ6tO3QQWFjWV6z89P69eaH7qWfLHn/6Oy5dz0cR0/n+O3L9fklO8kL8Wfe+bLpTzTjk27yI6vdkT/tmXV8fQ5JMrIn9s61GMY32XRqqJSOcPrEPO5vzd2XuuQ+sUx42fJ9rlV19Kxd923UTHfzmNLcc5+TfJy3o0/j122K8fOubA9/lLfR7yX/dXisPTtsn8uZ3ZZ/owu99J280JfC+l28LcTyZyDDTLpZKC0dpQ2lkBMCaAuYi0x5Otln6zX2JilLmWfLGt0zFKXnv5ebvvc5KgA9W1iAo6fU1sldfnb97dzszPKb8nq9c3+X5607QVyuU8c0+tl8dLTMbNDuvh2UYY+l0mq9LNfcHp6x+ulPst2iTXbZJbFgPQbO45xpvHsF296bJfXyz7enrExk38UDxUCms/ZtrExS13KPlmW13Hk3Ozoz40RGWpjOqVNVm2j2nAsY2U+i7nH2rRjE+ec5PWu2/2lcXxMrF1m1t/L5+2xor72OdqmfNxixBi/PBdEnk3fLLetg+nbsn0kl2p+x7EVnzEZ5xb6KTajMc5xlG6PdbQ4b/VQ4nJmHy8emxb6aWKlRac38c6DOyazc4JkE1KJLoHSSi6WOMpXDWLSTDakJJavJ/1yn2zj2JilLmWfLGt0zFKXUs85v1miLguImLyTfnUyNRva/pUO1ib70K5rMYjXvR/SuU10/8sYqX/7V3fU9hImvY2SZyyVto7ob/21ABrbsrf0b3kv2S353pZSH/m3dzSZaY5qzOjbsc9jnCXdMgc9tsvrZR9vx9iYJfNln2zb2JilLmWfLMvrOHJuMfAxPF+WjXedvDtiyz22sTi2+W/HxuZl/WBIc68Xy7X7FnfTJ8+Ttk/bOkR9TZZ/BUQ69DaDdl/5qD32Mp9Rh3aeUlGe/W79kl4t233O7Y9fj+3bKl/mMdv2lXm33Sbp/8XrF8Wvukl+L/5el0c9l488k5f64nJmezE+7vXNCv0cUP9aTD5XkT0f5OXJPCbPZEiHNLFbycVsyEkvJZtWkvDXY5+sz9iYpS5lnyzLCmrp0hszXvd6elmj536RSAm5NVnrNiNF5Ppia+P1+TFb8/2lpwWWyHPbVuyXfOIXHdnbKvRNhsWwp3+ZpKyt4lovOLUsMSx9S33WE1WyJekW5UjeyHGUszG2S+bLPtme0TE987FPtm1szFKXsk+WlXUcu2Zyti4OSl1ndTp+++SfOCf1Oc+Fdmysb13op3hHuTG31Hkq5aG8xuipcOwXWWrr0NLXrsm2JFev0snOtk6WH9f0iHqlz8opGjMdNZZvH8dNbZJdrTF9zvUyyvOW/ZHl0h/S0etnvvUxiTLsc9S/Z2epY1vWo7QZi+Ocj8o1dK7vo/g92jlZ6N/CqSOT+RZ6MWaEafzzUqGPX8f9OO8rW5TbRcs1x0W2YkU+gwWxwBEWYGCWAQr9eWYo9J/NO20WTNqXPtaTka2fauLn0s+1Pygya5+s+Wzr+8Tg9jHYOqbII6Yw8FQMUOjPs0ahT6Hv/oriPEAjk/tnv/2r4q8H8lT5On5ejsXYu8DLMm6h99HGpNCHsaMxjT0w/XQMUOjP+5pCn0L/6oW+3kPV+5Gtd/1JlPOTd8xnVlgm37fehR2TcS3dHlEuhT7MPSL32Az32zBAoT/vxzso9OeNYkLhMxiAARiAARiAARiAgUdngEKfJ/pP8ESfRPPoiQb7mQMwAAMwAAMw8PQMUOhT6FPowwAMwAAMwAAMwAAMHJCB1UL/F7/4xemHP/whwT9g8NlZP/3OGp/jcxiAARiAARiAgadigEKfAp5NHAzAAAzAAAzAAAzAwAEZoNA/YFCfapfIODyRgAEYgAEYgAEYgIH9MkChT6HPDh4GYAAGYAAGYAAGds8AP685v6Gg0Gdi735i86RgfmLjM3wGAzAAAzBwNAYo9OeZptCn0KfQhwEYgAEYgAEYgIHdM0ChT6G/e0iPtrvGnvlJh8/wGQzAAAzAAAzMM0ChP+8znuizg2dzBAMwAAMwAAMwAAO7Z4BCn0J/95Cyg5+HFJ/hMxiAARiAARiAAQr9eQZ4os8Ons0RDMAADMAADMAADOyeAQp9Cv3dQ8oTiXlI8Rk+gwEYgAEYgAEYoNCfZ4An+uzg2RzBAAzAAAzAAAzAwO4ZoNCn0N89pDyRmIcUn+EzGIABGIABGIABCv15Bniizw6ezREMwAAMwAAMwAAM7J4BCn0K/d1DyhOJeUjxGT6DARiAARiAARig0J9ngCf67ODZHMEADMAADMAADMDA7hmg0KfQ3z2kPJGYhxSf4TMYgAEYgAEYgAEK/XkGeKLPDp7NEQzAAAzAAAzAAAzsngEKfQr93UPKE4l5SPEZPoMBGIABGIABGKDQn2eAJ/rs4NkcwQAMwAAMwAAMwMDuGaDQf6BC/2e//dXp1ZuXq//+eaDNH/7zb06/H2j3L//1j6vjvXrz2enrAVn/+t9/NyDr5enLf/98oN3fn74ZGPMP//HpgKyXJ3yWucJn2Rev3sCZzzl7nZvkFs8s+dgzsn2CTAAAIABJREFUyxqW2dh63f+n77Js73N/vue5+clv3tt9kZ++0aHQf6BCn6/w5oONz/AZDMAADMAADMAADDwOA7y6w1d1d7GLJyk9TlIi1sQaBmAABmAABrZhgEKfQp9CHwZgAAZgAAZgAAZg4IAMUOgfMKjsgrfZBeNH/AgDMAADMAADMHDPDFDoU+izg4cBGIABGIABGIABGDggAxT6BwzqPe880Z0nJzAAAzAAAzAAAzCwDQMU+hT67OBhAAZgAAZgAAZgYPcM8POa88X/rgv9d3/6k/Cb9J+eXjz/we5BZBc6D+K4zz44ffndy9MXv/vxTTjQ32+41fjjfrpmDJA9GwdbnPLvbP/+3/6iye8v//gPxd+6uJfftp71xzXbpzn6zesXp/cp2pqMXdP3S7JtDnx0+vCdd3al15LOj3hPa5x+/39vc4lCf379vYtCn8VuPrD3m6DWCvm1+9f1lZIghf51/Xy//K755d3TZ3/6/NQr9GW3HnLsKfftUSf5S0dtqPbkN+nG0djfW+FIXPo5Kz142Fu8KPT78eqxTKHPU58Lnq5Y4tbOPx8veWqzVsiv3Z+fBL3J0bpOIXFd/7Z8fqxrFPrXiqc2Iq1NePymxHLVed8QS1a5mci5sLy+5/liuTT54nyfZRk5/9s3V+0C0dqvbXSvxQhy53ik0J/z1175otCn0L+40C+T9qUL3lohv3b/uhOTQv+6/t1rotxOLwr97XxZsrhUlLTuqWBvFblLOqqfz3vaZKRi914KfctlH50+6rzqNOuz0Set5NCS2yXWbn2vxcCtdRrl7NZ67ml8Cn0K/Y0L/ZTErBi3Jzr+vExwPuHrlZj4VEif82KcC/2yT/tbBC3KtRzTJd1PC7ZfqC9brE0/jffqzXlPDeXDZLf8JJmxkIi6+zF1L/ZREjIftn2nNv5ounx0+ulz/f+Z1Pe9t6+jJP188ZP6Rd39fdMt+edHb//fhfRWzOITQdkiP7x6E/XObMRxZb+uZ54ykzZulJnvez+U53lzK91a8q3PVoX+KGdRtxaPsU35hFfxkG3xKN/KJ+W87DFhepSyz/G9xUdsRF2kUxon8vTsmez2DNc6SLbF1Pp88bv/e/ryu9w22WzXYqEf45T7JN2SXmlOyGcxF/XskV2XHDV2nofl/39b91n5rr3NrRZfcQ6ZD+t4xHZ8viS+W/RtM3DbuIxzdls9t/D/VjIo9Cn0r1Dol4ncFrF6AUhJZKlYa0OeF868UNh4vohUoZzbPPu+mPftTIf0VXNegHv6tvXxycR08/KTHl+c9R8Ds53LutXyzSb52+T0Cs9kq/fRmo1Ksl+9/uvTh++Y7K9ef/z2q3/z25IfS/+owEj9Xzz/s7ebhXSe/Kdx9J/vTXZZRJV2pjiM+KxkM9tb6pav+/i2z3/5x78tfiTAdC+L5SyvxWotV8Vlq9BryW/5RzLK+L57+vjbvyz+o+qo/pLX0snsM9s8r4qJ10H6pw1Dniu9uNS+yb7M9yJ7sU1ixeug+8aQMSu9on0mW/PJ9EzzKfW1eZXYSTJsw6u5Jn/pcxrTj6fP37z+5PTlt8+/Z97Ph+yfbKt0v+xovJut2SYvc8Rnvr35T35a1rf06XJbPwbnT+urHgO3jMMMZ7fUc09jU+hT6F+h0C+LptaCpwLAL4I2MaxvfV0Jzu7HRTsu9PGzJl1cYGzhLRcn6RsXfMnoHc/t15bXtnNkDLUxH5aLeEySyf6ZYkLFkMkudSx9246jH1962vimp4pEjWMxaMsSQ1n/Uh/5VeMonqWexpXXS/3OP5otkVGTZ/eyzuK6PEadsy69/vWY5y/Staw0fl+nZR+Wsczf8sQ53puz2fbSR/l6zye5fdsX0U7jp4xNlG2fk+7JrhTjD3/98/+ZQ/le0q09ZslyaqNvsuQnP2/bDGW7sg/mrtlYeVPe0rV1Td+CtPQymWUu7em3xlKvH9fn4nypv9oMPK0O0YYZzmLfR/1MoU+hv3Ghb4udCjabWHbNLw79yVouhPXEbN8vi4R6PMmJC0wrkcU26rt+NN3Sk0oVlet9eknTZJVFR69tvF76KNkoOeYnPW02P+neiK5l3EodfQFdtsv6ed/681hAWH/zoz+POpbxK/WJbfVZ4/pCs5ST9VWf2WNf3pjPpWPkSNe97tKtnAMlA2ozemzpr7GjTpKZ+pTzXn4sdVmKp2TNHUv5rb4te0zfsjCNNtQ221jmgxTLj09fvf78f+a7xdZi09OpjL/Xq/SLtfM5s2XXudfSuH7e29i1L+L4LZ9Jh5YM3auPPf+IGY61z57eJ57PPeiTdJjj7Ol9thc/eT0o9Cn0Ly704zu7fgERbHFyxoVG7fSUtlXIWJv2AlEWOeVimmXnp5KS30pk9eI+kyxs7OyTcvH0uiyfm50tX8Z+Kt7zmParF7Ix3bcFO71a8PHpo9/+VfMJZJTb+lzGsdTR9DB7ezpJx1QolX4uCxsbxxf6bT9a4aEnk6U+Lf11rYy79esVsOrTO8oO2aZjLJKsf59NL18yo06966mv9/9SOz9OOldb6a1j1F/tok6SV/rUz5kyLj626nvZ0eSL95Ys4yT/HYNkY7Qv9Ys25rkje0pWyvs5tpIjX8aj5rX3WemXcj60bDr/WstfZYyS7FGfSY8yN8hfvWNLh15brsvHT330fD712L3x5jiDneRHCn0K/YsLfS1avYlp131it/N2weDbtSZp+74VOSr48oIbddICrLFbiSy2iTJGP0uOvpof7WftzM4135rd8RuE0kfZN/Y+/4/e/kfa5CtrJ1+M6Fcm2VJHG8cK8rJdK46xqCoLG+s/Vujngq3UZ8ker5+di522rj1ZinGMU4srk9Fn048huTE2veupb45z+k+SJQNetj+XvBH91TbqJHl9m0tdfGzV97JjKb8lq69bjLePj52XGwgbq+0D33ddp6Sn16v0i8nKbEc9z/+sceLmwz7neeB1a/k0XjO57Q15bDvKZ93vfLuRNe+7WQaewsdznM3b/BQ2PPUYFPoU+k9U6Fshkhau9E5r+yv+NCn9YtmapO0FtCxyYtGT5cR2rUS2VtDMTNLzZZmdsQArx+4VA6WPLDF+dPq/4V3iT37zv09ffvf/iv9IWsrPftP1MsmWOvpCf8Tusk1pi42jDUxpj3Spi4VSn9yutkOcpSIuMbDs51Z/u+Zt9uO1uLL7a3yb3NI3fvxe/3i99KfXzZ/P6d+Lg+lXspF1jtfL2OZ2Xq+582h7LbMfj7qt6adflioL135ckhyvhz+vx5B9Xq/SL2Pxk5yZox/T9yvHLzchvl3v3PqX/uq1XfZj3189eVy/js96rNzS3zOc3VLPPY1NoU+h/2SFvpJ7enJUPiUrk1RKLv2n4O1iIxbwKgJ9Aafx/ditRKZ27ad2pa5+MqcE5GWne71Cyvdrn48VrdFX0t372F+TTaZX+WtDbT1Ke8skW+oYbY26RfnSy3QqCxsbR4V+248mPz+BbMU8juk/Zx+MFSe+r86lZ4672ZH8334aO1YAlr5pxSD7JukSfZ+uSTc/B1Ix6n91R23G9Jdt3udetzKG5qOSEa+XWLR2Xs78udnf02u2aDWdUwxL38VvoWo9fT6pfTvWvjUftvCRj0eOt9epjJW3ZWR8s3dsLrV4HRmDNj5e1z+fZeAp4jPD2VPocw9jUOhT6D9Zoa8nXv0iXolLBUV+pzYvTLYY5c/Wp73Q5wU7LdrpXywuWolsqcham9SmR9a7/82FbO0dy0W3P270VSp2oo/kh1wIycZ2MdrTScWjFvNSx9biXfsjF8DSoVXYqEjy8Yqyat1Lffo+M/s0fi2nb39LZtQr6Ry5Sp/FYDxmGxUnz4/Oc+ySDvJPllXel56yMbdT7LKNI/pLnjZTWV6cU5HHelMv3bPdWZc8ztw12dmTGeOxNo7iFeXNjqP23l8+/3m9Sr+0Nk1zPmnZaGPUDKit2W0sed10vz72me3PK7MtbqJq2Zfbi8zLfDjGwGVjzMZojeFZeY/QnkKfQv+CQn92gl9n8XqEiYqNs6ytt1cRFjeN+Hrdd3v0kS9SL9VvS1mX6nK0/hRq9zO/KPTvJ1ZLeYJCn0L/yQp9FVbxKdkSoNw7RqLZYxztSXb7Sfge9UWn5bmg/HL5k2J7Ss0GcNnf5/E4963beWNcQ+/HlEmhf4y4U+hT6D9RoU+CZ9HaT9IsX5PYj14wclksFNfzi3S+dbweg/j2er69bN709KLQv45fe/6+1vW7KPTz+439dwuv5SDkXga6nrKlGF7+pO0yXYgl/vPvo/PN0jF5SDHuvx/eszm/az7ftydzi+tZr7wO6v9t5OO+dG7bbZswvkHb+zrkc2Ribm9s8epXe34tcbXrQn9Jce7NBxuf4TMYgAEYgAEYgAEYeBwGKPR5deeJXt15nElFAiXWMAADMAADMAADe2BgtdDfg5LowGSBARiAARiAARiAARiAgTkGKPR5os8TfRiAARiAARiAARiAgQMyQKF/wKCy253b7eIv/AUDMAADMAADMHBEBu6g0LdfHTj/59IA94jgYhNcwwAMwAAMwMA1GNjvXy/mV3fm402hzxP9q39Vp5/Y5OcM5yforRex836q8DI74eUy/92amSOMr58Y5AHTVixa4Zh/IrT3U9nWDr9v5fdz5VDoHyGPyQYKfQr9iwv9tcJs7b5g5HhuUr5OP/3xoafeoMHLdeLJ/Br36yMU+rf6Y0hrT2RvlXeYH35+UOgfiYerFPopgWz3B5J4dWdL4FRE5Scr9kdXLvljVpLZKwjX7m9pH7J8sj7/XDG7xZM1jd3j6SliLB22mCeSFf/wjAqaeP0p7GOM5bmh2NySwWvHaK+FfrLbNlq9p/7Lsbu23x5DPoX+keK8aaGfk+P/Pn353VZ/CfU6hf4tXknYAzgqOvwCpmuv3pz3VwvV38v0tq7d920538cidqsiIMV/D7y0dNC12XmS+5WFix6IUOjvg3mfe/Ja9t7F33h6uXs6v9UcN9+Wc6H2ixWazI31uaH80lt/a9+uy3z2jEL/PL+N+Pbp20wW+v3gG2wqFK04v+QpcXby9oW+FthbPK3Mdj19sNPYvaSghS35xJ9Hfc13Fmf5MT711GclHj+m79NO4hZvyXj1Ji4Idj/J1tfr1lbsjfvV7Pzo9NPnPzl9/SZ9s5FkvHf67E+fN7+Rkl+km+fbbEy6/ujtJld6y95oq3wiWXXxmLmP48qvut7i2McpxnDts3TTOLF9kt2zJ/eZiVOMuX3LlGUpprFdjPm6z6Itvc89H5Q+t/GiL5JMtUs22PlHp49++6tTjlXqa9dif/UVG5dw1rPPrls+TzqJUz//xbBkRL16zCab1+am/Csb41j9MY2NOHY53kvnZ2PHdLdcIltt7MiQWFs/lnLqMWXD2NFiseyPyH/Mjc/exjHxEv2ruRSv5/HMr57FGZ9F/3tmo/1ebrznP4s36e7vcV7yKRZzfinvz/urX+vNy7pUl7L/KD+31nNP429W6JdGWUJamuxl+zKQ5T2TtQ3AOZk+avJQoo/267r52fzkk77FpB1X9Y0yFUfdT4tKZqKOqxK7j7UWkCzb+pWyevoucaVi7NPTV6//+vThOyb3q9cfvy0SbNxcBNhnv7CWvjAbk6yPTy+e/9nbzUI6T/bGxFTbZAt0WexkO31RU+rRs7vUTXEYPUbbY7+0qEQ2FOPZOKmfj7muZVl5g+rb2eKWY/Ts2YjPlpmQrS0d0j1dlx5lPLJsr5vFXxtK0zf1SzJ078N33nn75LiWV8bSxh/jTLb0j8aPZ/6b15+cvn674bVxZWca98tvn7un29bXs+n9n+d5i9EPTl+8fnF63/3/KPOXn1+any9PmQPTKbLnfd2KUbqm3LJF3kjy4ph27W9PL57/wPko85Du9/6JqdKud08ff/uX3/tI+iseSZax4v0jvfTQoseU6ZJsKMcsddSYyz7rc9CTbXLLWLd9U7LfblPq/MhtxEOee5f4xuK6jaxL9Kj7jvNT931UPh6o0LekUS5MjweCFpW8eJoPlNR1vS44tFjWCbonU5NK92PSKBeaXmKJhUJ7sTd9fdG3HlvZbItnKbe03+75RTbZ5hNOaWO5+Gkc821bloqk7KNSn+jLc+IkGcvHXhyyP8u42XXZL71kT1zsY5zGZFkBE2VpjByXMZ8t29+zx66XsawLf5Ndxtj6JDbt26JPfvPB6bM/pQ3hD0KhX/aTnudxluMlOfWx5NRio8LRdMk81vKiLxSPGKcY81qPth9bbJTzMvfL3JmecUzpmllpt2vpVl9bnyN1n9p/atOyU/fs2BvPrnt/J1nlA4O+j9bGHfGZZ9PrrL4xLqlNr4/vr/M1HdWOo/Elv3smzvNNj7k+x+eNMy9vhp+n0mnv4zxEoa8i5HL456HcGwDyhU/AuuYXdV3zC2Mv6aqtl+nt7t338tTGjycZ5aLdLobKNmNxKhNGWdj4gqJsl2VL52S3P9f7jeJNyTe18+eyT0fvDxVNPiZq548a1/utlJP19f36523/+vYt+dIjM9CWU8ap3WZUlvycfVTG0Os8e17rkAumPF7ybV1sRV6SzZ6F9NT8q/95om1tbYMa+0lnr4s/j2MvsSVZ5bFczD3zI/yVuiRftONZxrzHY+xb+zXpHmXFz7Iv+nLeNz097XqaA+WT7uX20qs+RrtrOfKzn+OSE+0fm5vZBnEpef444jPzQ+sBS9+uGBs/ZjyP9sX7fO7zctlDzTI37MnPM/zsSe9b6rJa6Guyp6TW/lc/4VXCLxfEGsgxw/sJY6x//jpzKamZLIM72pmLF7Oh5ZOWbC0GXl5M1krivk1rgo6OueaT9nh6ilfGqFw0LA7RF2k8yWzdW7rv5S/JsGQvzto8nLMglAnD5IpZP6ad9/g335X6l0WKYpf8U45Z+zvHvtRnKa7ej5p7vVgsybF7bf/6fuV4ZkNpf7rWllPGqd0mytLnco7keChmGjN/Lv3rbVg7743Z8muMafKP1yHZnPOD2Sw5vu+WnK3ZZ/fLxdzGL+eZtyPZ1YqBbJH/Y44rY24x6dnq+/p5Y/qa70Z0Mj1li54it/PcmK9qlqINXvdRmeIs+7AeZ6lNGbP2N1+9/q157PWu/V/r1pdRx0qyPfO61ju22Om1bV1vMVvH6VjrvuKd5kBtax3Dlt/0EMHPtXa7UXnbtZvhZy8631qP1UK/VLBcGMp7PpD9Sd7v4/v7c5N1PrCSZXLi15rz+kjefR6VBJYWFvnETyg7bz25eapCX2O3eThnQfD2qUhRYvMLaNmuHffSr+cX+rEglD6KSevo9VuKU6tvfa3tX9+utbiX9icfteWUcWq3GZXldbJzkzfis7pvGddah/J+2d/bYed+fiWbc1xLOXXscnFajmH9Sr36nLX61tfKfO6ZV/zkSyuYSt1KXZJ+3g/ZzjLmeiofi+66r/XLG7pUuEgf2RJl63o8mp/jmFnH2H7us/nxvMKqtjuOXfs56x3tH5ub1r/V1o894rO+jL5dnnk/Xus82tdqw7XMg2LWyzfjvipzw3i/rMu1+szwcy0d7k3uAxX6CcCckP1CfG9Bu0TfpUWjlmv+SpuslNDjIpvb95N6atMbs1wkeoklXm+Pdc6CUCYMkysbTZ4VNj39s/3RRtNZyVbJ15hr618XSaU+fqz6fDROI0k4+rvuU8bN7pu/fCHVtrOMU3usJD8VTXmOttvVfpjxWW2XlzcSc98+2ZXi/eGvf/4/v95k/xEytWn5S309gyNjlm3ML23Olu2z8Uu/eubFo82Htl9LXdJ44zGXzvJD3bctK7c3+7z/4j3/uZyDI76ZbVP60o+9fF7GsN22J7u+3mKtjpPZVs7F2t4Rn/X837ue7Fu6F+1v2RPb8NnHs94Mn+efmq3z5NRcXSpnhp9LxzpK/wcr9A06FRKXf0uwPcTXBquX9Hvj2mKQnqqVT/PK9pYU8msnpV96Y8YkbhPYF3h6+ufHbhcAa4tWqa/pVyaMspgpix69/uX1WLLR/KFiJtoVZSfdjEl9a5Fkl/q09PfXxuJU6uz7+/M1X0b989g+dmNxasmyX37xslQcrH0VPeczb3M87zEb2+mz2ree6kbO1Scd1U+bGuNgG878OO3zcjEvY+F9Wc9vMV1uyMZiHm2UD0rflbq19U8817q12kpf+bnVZvxa/atBsuGcNUW66SGD6dH+1R2vfxkvm9st1qSb75vG0Lg9nXU/9iv9ZP5XrrN7np0655jcPuNZ/rKc3K4e49Hu2Zxay48zfhqdfzMyt2k7zs824x2BpQ0LfZuUKVm3/i0ni6WAtBePS52fkmSZnJZ0OM69XtLv+VPt131Vx18xlwx91litRUmLS2bIF78pDm0ebNGLbZfjViYMk6vFtrWI2rWSb/mltLFc/GSTtz/Kkhz5RnZKn3y9bZPGr+W02y/Jkyyvb2yvhSXFycY0/+U+43HysvwT5CzLbJBemY24AS1jGHWe+ayxog59GSo46wKmxbnktMaJbGQfx43BOmcap30sF/OS+ehL+yzfp5j/6H/+/kT20WjM5SvNpTRv677yjcbMx7aP832T6+dOaw62fTI2X1q6ZT+MyfDj1/JqG2VDtrPOdy3WJLulX2TN5w+N1+rndc+bLcWzLjilQ9Y9t/Vjerk2fu0H34bzmBPm2Wv7sMwN7TZbjTUnBy7m/JViN1nozw9wOSD1AnC5zFvYcZ9jKkH3nvoQi33Edes4WfFdFxLEuxfvsujGTz0/jV0Xz75YN59qkwCbx2Zsv4Xmsf2u+blf/1PoK0bjRwr9hT9k8hgTehkWe+LDorp3FraOU7/QWuZl7366ln7y1/rTT/w3EoOlp8lsQo/PUPnt0vHtHZkTT9uGQv9p/X1dxin0KfS7f7FxabE90iS4d1uuFSfJ5ductSRs3zrWT5/X+nG/N/e0cYo+FZPxek8O1++PMcWYTfMtY0ehf6TcQaFPoV8V+v69TZLtLZPt8thPEac0Ru8d2iMlwnNsUTGa3jum8Fxm9VL/+ne7yUnb+/qc+FynjxWYPFy4dYwp9K/D923iegeF/m0cc6QgYwsMwQAMwAAMwAAMwMDjMUChzxP96ok+ieDxEgExJ+YwAAMwAAMwcDwGKPQp9Cn0YQAGYAAGYAAGYAAGDsjAaqH/zTffnP78z/+c4B8w+Ozcj7dzJ6bEFAZgAAZgAAZgQAxQ6FPAs4mDARiAARiAARiAARg4IAMU+gcMqnZxHNnRwwAMwAAMwAAMwMDjMkChT6HPDh4GYAAGYAAGYAAGYOCADFDoHzCo7Nwfd+dO7Ik9DMAADMAADMCAGKDQp9BnBw8DMAADMAADMAADMHBABij0DxhU7eI4sqOHARiAARiAARiAgcdlgEKfQp8dPAzAAAzAAAzAAAzAwAEZoNA/YFDZuT/uzp3YE3sYgAEYgAEYgAExQKFPoc8OHgZgAAZgAAZgAAZg4IAMUOgfMKjaxXFkRw8DMAADMAADMAADj8sAhT6FPjt4GIABGIABGIABGICBAzJAoX/AoLJzf9ydO7En9jAAAzAAAzAAA2KAQp9Cnx08DMAADMAADMAADMDAARmg0D9gULWL48iOHgZgAAZgAAZgAAYelwEKfQp9dvAwAAMwAAMwAAMwAAMHZIBC/4BBZef+uDt3Yk/sYQAGYAAGYAAGxACFPoU+O3gYgAEYgAEYgAEYgIEDMkChf8CgahfHkR09DMAADMAADMAADDwuAxT6FPrs4GEABmAABmAABmAABg7IwN0W+j/77a9Or968XP33zwNt/vCff3P6/UC7f/mvf1wd79Wbz05fD8j61//+uwFZL09f/vvnA+3+/vTNwJh/+I9PB2S9POGzzBU+y7549QbOfM7Z69wkt3hmyceeWdawzMbW6/4/fZdle5/7c+am99HY3Pzm9YvT+wcsvp/yG5a7LfSf0kmM9bhfeRF7Yg8DMAADMAADMHCvDFDos1PkqzoYgAEYgAEYgAEYgIEDMkChf8Cg3uuuE715YgIDMAADMAADMAAD2zFAoU+hzw4eBmAABmAABmAABmDggAxQ6B8wqOyEt9sJ40t8CQMwAAMwAAMwcK8MUOhT6LODhwEYgAEYgAEYgAEYOCADFPoHDOq97jrRmycmMAADMAADMAADMLAdA7su9N/96U/Cb9J/enrx/AfsON9uTt49ffanz0+//7e/uIo/ou+3+S1b0zn9rvAnv3nvKnqTHNrJ4Zd//Ifibyjg/7afbs3PSJyuMzf36Y/rxcNy0Re/+/ED5qGch+033pfX1czbR6cP33kn+OuD05ffvTw9ph/PnzMj8/zZs7k4bTVXkm7Xqisu09FY83+XgHVsjMG7KPQJZiuYlgSeYkKmiU+h34rB/V3Tos2c2nfsRuO03dzczh/2xwxbReF2Y1xWMDw7WaG1bx0vtXGk/we//vnp1RsK/RFfXaPN6DwfidNW+kmnPW/epCPr2FhOpdC/yqs7/acc2y3M91joj0G5VcJCTu1vEmTtkz1yMhqn7fLJdn7Ze6Fv+i0Xt3tkIulU/0X4yzYrlxeQ/bVurz7ck16j8/zyOM3Nbxtvv9+8j/ptT7G+pS4U+hT64avYOiHssZi45aS557FJkDXfe4znaJz2ODf3Xejfa2Gq1zjiBuWD0+ffPl/N4T3GLy8g79Wf+8gDo/P88jjN25tyy6s3l20ke9xden3Ub5eOc5T+FPo3LfQtSaavn8onNe3JZRPvZfGudf3qjsnM77FFWfmbAE0Wte19VdcrJqRz/fWZjZFf99EiJd3jYmVJKMmzPqUNLb1avkh21P5YT3B6eiE/5GPpu9gujjWj/7NnpY11QrX7yfY4bvR3jOPSV/FqG2XMJLTk+2S7ZMlfpcysv5dtzGS/+gWsjGluk/qPjWmxLuX03h+O/m8zGX0fY+5tWzuPsuqYZ1bl29Kn+b7GSrY1N9kbAAAgAElEQVTmeVbf1xxVjPr6R3+U/k/jLesf+2uu6xjlxfa1/zMr7739/0iyYcle+aV3zDLju+bZd9HO6DPxFfNS77piGeX0dGxdN71rH7XazlwzW9typfey3y2OyRcla+14j+Sz6P96nqyvYZIRY5R8Y3GK+uX41/6z8ZIsH2ONEfNt9Fu87+Wr7do8X4pTkic5ilXtM9k3thZ7mS0fehtucS571/x2C932OCaF/g4K/TQ58yJgE7FczPrXcr882f3ErJOan+g5wStptSZOklHqo6RhSd7rkCDXJPR6CP6lhJUXimW9ok3SvTWexu0d1TfbbTZFe+uFtrZ9VP+Wf6JN5UYgL0otPb54/eL0vuPYZGUfets1drZXsRw/mvxUwOUxWnq1/pOetcv2yP9rc2BmTB872VsyWscu+Tv6sWdTKWvMb0mPL4snr5qH2RfnxCn5xdubZbTkt9lWDEq7yifFM/rHGGedzFcaz89X61O+KqBriY3cthW7sRjoPzeWdpZ9x2Je+7Zlk+zOdrRjrXb9o43XjnOpf19Gu53pnedxr3+fM4vHV68/dhy29LV2VohmP0R/j3Em/5c5SDGw3NbSIfngHH5MVrIxcZh0/ub1J6ev3z7tNnmez5hHLHe1faz8tJaPl+IkvryM1pgaq+To3dPH3/5lsX5kBno+bLOU+13/vmzxNj/l+Pc2FoW+K5C2C16c/Bn8MmFau3Li6T3MnAzbk9wmoV+0StkaM+pi/eodf2yn/vYEJOooX1lCybqm65Z4ymtq37bFxmolLCVmn0jrAvL8hNTymenhE3PbN9GWMf17/oxj2Ofo95EEpzbZZzmWundJgrSYe/8k+W39ow6RDfOhL+Q8C5mhkTGjbDEX4znmg2iP6RVjrjHOOcr2VizGdOyxpKfvMUa67gvqOo+M2tLTvxcHk9sbr57DJsfrajFozdkRndd9OhNza2v515+bjl4fjetztb+/dq7+cS6t9Ru5P8pz3+dme8xTNRvtdrKtNQekfy3LWFlbw+K8T/JG7dXYdizHK7lcjn3qLxtb8dO9JfuX9bbxa9m1Xv0Y1szK/uW53O+n/tc6jvrtWuPfm1wK/R0U+nGSxsnVnqBxwexN+NjOPsfEvARue3yb5L0k3FvUlhJttNt0Ku3SBC99Fm0cTUBtX0Q9ejpLFyXp2K+lf10QS9doQ52ol2JU3it95u9Fnf290fM2D239yzjVm8CaH/mjPK6P2Y5lsqm22fyTni4qdtH20ZjHfjOfa72yzUv3/Bhtvyy9nlCyMTqOH1Pnvb7teWC2qU/kIsmM/exzvVnR+LPHXkwlp3dfOkdWxG58Si15Wx01fstnl47RsznK7XHWy2e1zufnM8nK/u/Pda+3+nm/9e3Ic8/LsPMyt5VcjthVzjkvXzpm29p69OIkBlv9S1v7Onh94nlv3NjuqT+P+u2p9drreBT6Byn0Bb4tOnovNh9z4T2WJD2wZcKIiahMgqZHf3FeShxxoTcd6gSV9PFPc5aSnbejdV73rRO36ZV9GX2sJDui/3icaj1a+qdrPf38Aqe+Gl8667qO8oe3MW4K2zyUHPQKgOgjjdfTR3qtjxnHz5zK5tIf1j7bWTLb86nar+krvf3RuK05asmSzq17UWaMT7rf9lfyScmV+b+03cv356P6xxh7GUt2Wb+sS/zs5ZxzvmbrOTGXT9bidI6+6iOflfxmvtXunOOaTyRzjadat5i3S+4kt3WUTzXXdMw+trnb4j7KK/U2HbKcUR+WuaXksrarx1Hto9ZDiLZOvTj1ric/mB/tW1ExNGv7kvzo66f8fK49T6njnsai0D9Ioa8FvJVMSuDGk6T6lcmyTkSW2CyhpPOlBLyUOLwcjV3bFQs0K5xmE5jkt5Jy3hSZrUs6S046jukfF8DanyazXkD8WDqX/qX9/TG2SJBtHsrFsI6b2Rl9ZL7tP1mXnetjxvGzX9ds1n3/fw5GYy791o626OYiNrXXuGXsTO+le36stl/WC33liZlxvH+W9I8x9voujRf72efSZ17W7PlaTNfux/Gk3+ff/rr4/yqx3eWfbT4v5dVzxxi1ucdZb57XcR7LZ2PzZHwN8/bZeX4dcNxnZW5R3O2Pd5Z22b2Yzy7Px94Or3fvempTxqyvg5cXz5fkx7ZP+bnmK+f7p9TjXsai0L9ioR8Lxvo/g7UnnyWLnJDi5wSXTcD6P/HWY8YJMJ4kBXGZMKK89Nns+OQ3H7z9dQwVEervj0uJo2WnZEvmUn8/zth52/+x72hSGdG/ZqDlz+zT5Xj2Ytm3a9SW6AP/ucVDLbelg+l7zrcxI2O2/d/bgJV+j/rHz97++XPzRYzl0hhL9/z4Lb+k+715Ul9v6+bH0Bwc1b8ew/u6LJryOPV1i+d2hf6aT9fuZ13zJs3ykvmwV4hLbvSfl7d2nuIcN1prfUbuL8cqx63HmdhQftaYdey25KyX97K+0kP5NumXbDgvBiWbpW3erp5e1ib6KOkoNlqb/WxDfz73/F9f7+nW8lm+1supXrdbnI/67Ra67XFMCv2rFPoqLspFqkwQaTK1E0CcXIJaicI+f3r66vXnReKypF3/x8YSvPkJ30/yOSHYQpSerucNSjmutV1aWKLd1r/0kXyxlhhbY9fXygRe34/2lfGM7Uf0T33G4uQXkKxHHNP8nvWSf9LX3eLF99H9S/xX89BiKl6zz/Y1fGZEvljTZ2zM2mey1/sijek/J//Uc1NffWffej/Oncv22u7kj5bt0rt1z49d+0WsRP+n67V/su2RF/+rO3P6S/deUdWKecv/rWve9vlzs6OnV5IX51N7DPOjL+xlU+Qq9Tc71nNjeyzF08asi30fJ7UdP5re64z3OTO9vN2Kv7/WY6+0eZSzFtt9m7P/1+0s9ZHMkpuSy3JORX7ki0vz8VKcSn1MZ9Mj55tklxgt+edXd9oxV+yPcaTQv1Khn+DJCUbv5ZYTT8mvTIjqV7bVJPWFUprM5aTNTwisncb1CW4sSda6S1YsCGwiSL+oT/KDT3alXi+L13xszNLulo96uvmFd3Ty9nXzPjMbW+P6MUf17/vEj1kuIH17tDgqPsl/cfG1z9H3nqW+/DrR2SKi8ezYirtip3ET58ZJjrG4GSloJUfHkTFT25bsOpZZJ++Lul3JrG+7fF7GIHHzo+c/OX1d6Fe2kZ12zPq1dFLbMpdENtpzN+mtOEhOvWEvdWvrn1lZk7d2P+lkdvo5keUv+7rfzmRmX7bktPyb53n2aeRK86KMQc5/bV77urZ00xj9OK3L6+e8ku2WHzSut7HWqTXnjJ91H4xwNraGyX+yN8dw3Ufqa0cbT7qXXEa7Mh/mq8Satck+K22UT3N7+xsP0ru8b/k22hJjFe/Lnlpmf36pbeRcsm553LNut/RLb2wK/SsW+j2nH/G6Fu5rJwUltDiOJr6S8YiP+32UrJcLgpExjtgmLey9heRa9t5izGvZgtzZQmvL9rEw21I2svbItvJ8LrSJ00ic9pxzFdNYB4zY9YhtKPQp9M/+8+l+wjxVUkjj1E8bU+KeX8CXNif9cVgknirWt+DLj8n5MVnvPSwg3keONw9tZvheWhtn5FyrLYX+3Fyl0KfQv7jQL7/KnANwNhH0FmkrzFtfGff1UbKI3wIoycXrs7oetT2Ffp+po8b8aHZZvui/tnA0ex/VHuVynvyO5yyti3v+BkQ6EtexuN5FoZ/fUSMx7ylhq7iu/4PYGHzn2qJiP3OR3ls874mNEkYpa27DcK4d99qPQv+6fN8rF/elt72et+di5r78ua854dcIisG52KT8vs+HXPX/bSC2Y7HddaFPohsLIn7CTzAAAzAAAzAAAzAAA5EBCn1e3bn41Z0IFZ9JNDAAAzAAAzAAAzBwewYo9Cn0KfRhAAZgAAZgAAZgAAYOyMBQof+zn/3s9P777/MPH8AADMAADMAADMAADMDAnTBAoX8ngWKjxUYTBmAABmAABmAABmBghoHhQp/3rG7/nhUxIAYwAAMwAAMwAAMwAAOjDNxBoW8/qcTPoAH1KNS0gxUYgAEYgAEYOB4D9rcR+Kn1GbYp9A/4Hy9mANiqrf4wyTevX5zevyOfSm/9jv4+fz/4eMla3MW/Y9Dj55HjtMXfLch/8yL9zYmXO/2d7JLzLewWZ/s98iBrv7EpeUTPffiDQn8+DhT6d1SU7jnRqBDrFWrjut9q4bM/oEOhP59ExmO7LHussNtnnMZ0X7a/58dLZaf+T/1H7Xq25Ovr8/xSu/NY5/l9i/7ayPb/sM+6H7bQAxm3YwDfb+t7Cv15f25e6Pu/SLfNkyMS4dMmCiuk+n9p1uJxvYL4VvHeZwH5tLGfTyBb6jdW2O0zTmO6n+ffy2Rfe76eZ9OzZ+vz/DK7z9Vr234U+tv6c8t8g6z7jA2F/nzcNi30U2L2T46U5C4rCtcXhHMmbNqQXP70ed7h5+j61H20WWs9hdKT+9a9bfS8TrzXddtnAbmu93EYHCvs9hmnMd3Pi9Vlsm81n9ZsXdfrMrvXxn+a+1oD+/ly3Q+PlAOw9Wm4fCo/X2MOU+jPM7JZod9LaJcHZftEmOBL3zbwH3zbwCiWrQ2a+e6j04fvvPP2D2uo8F9+xz3HMLbXAqjNheTEY45VluWTlfXPetk9Kwq9rCwn2n5ZAWk+S/9B6EenL79L70HbfxYSa/Wm0uzIunndTZekq/qn8+y7+B+Roqx4P9um2Grc7A+TUev57PtxFSvv97Vz6a/xWkxJRmrbGl/37ZhtKa/neMYxs425Teqb/dl/bz3K8vpHX8pGHWtbYpx8zLNurblQy8rte36w6zZmzwfqG+2M7fP8eu/02Z8+f5s/k52zerVsk7/S0Y8rHn70/Cenr99YjFKbFodRrpcjG9eP5qskv5Tn4zQ2T6I/vY2lDTk+/TEVa2ubZcV5/uxtvkiMRjZbPlvzR9LH4luOW/o2z8c4ZtnObIh+abVJepW+KLmQ3iPzV98cLfksyYu697/RViw4Kg5Lx+xXP4cu853FvWZ/SY9Hv7dZoW8TMwbTkkCaZL0JvR6AnAjX264BlPU5J/FdPv6afnu5Lz/FeFosfLGTfZITfr4me/xCkWUaM3HCrsW7fb/F3y//+LenF89/8P1f+tPC0GZxSX/Z0T9aQvv09NXrj08vnv/Z22IonSdfxcSk5Of1sAVQvjFdUv/UJtn2zetPTl+/SfdL+1s2mS98QaR45g1IipH6ai6042HFwzkLX5In2Wk82d3mx8ZZLxyX4mS+8TJ6Y6rg8Polf/jPM/oneX7cOAekRz/mxlbJQb62JDuO9eyZj3cukNvFzpjPxFSZy61vL561Xn7+lBy32ipG2jSnNqaH5kn2j+ez5euW/Pqa6ZRszP42X+bP0iHmrfY8kS6eq3Lc/pjer5qrnh/FxMvOPss+sna1vqUePjZ2LvnJHxpDeuhzyVoeo25ndno/yjfeziwvy0p6/uy3f1Xk8tomk1/Kal/7IvxghPTwvk3Xvvz2+fdrx5qvuF/zk30ixsuY5vtLfet7xtY2ss7V4d76bVbo1wudBfeL3/2ft0VPOQHr4PUdJzk/vnDSCbacAPtjzuh3zLZ1olZh2JtgcwVY8r0SbF40ki/X4t2+b4l/Lbb1op0ZWNJ/PcayxTg3WSo+oi/ruRLtLvtrwTU/mf1+nHpuRTtLednm0peywS946/FY900er10M6X7bL1G+2VLbrAKsZiAWBbKz5C6O0/5shVQ9xpru7ftt/0e92n3b+smX+ViOka9b/968iT4rGcxjn6/bsl5JzyTbF/npWoxd/Cz7enbpfvtoOvliNLWLhYXGHJknahtjmsdvj1nq32M+zvMxn+Wxcxxb19oxj7rYZ+W6LKeMb2lPHteu5zUl+jrLy316OSn2Xfe9yYz92mP68Tmf95E4yZvGeRnE61yfXaXQLydOTAyzk6RMGOcYqgkfE/g5sh6nj/ndF1TLi/pSnGtZfT+uxbt9v7eQxHH6Nizpv86sGLMF3WSJN5sPSnBt/fUkq1XAl4th9qXGLAsO07X0R6lP9En+XLcr5/K6H7KsdttSr7JNPza+XS9Ote7SRX5SsbWkg/r0jr2+y7qPxLy/UVmW7X3TOu+NndrO+iwXZD3/jF9f0svsaNk9GsvzuG3rFMds+a03Xt03xqg9pudMMtbnuRX6yjuKhfqLf11fO3odfNsyLn2Gcp9+m6hbKTv6yj6P+9p867+RyDpl2dIhbipbbbmW/XaOL1J8y28F5+X14n+OPo/SZ/NC/8Vvf3Uqd/c2yX3BOOfcdiKckSG4YgKsZZiuCUT/LyZIA61s05Ktcb2smKxzkvHy6ieGY2OO6V/b3Z5spr90WYvDUpyt7xgDa+O077cWpbZv/dfy3u4l/X279rnGWiv01c4z4c/PKfQjnym+5g8VZmZbi9HIQkyiiYGxuLX8YrHy9tm5mCr7pLHWdezFqXc9PwXW3BsbJ+k2rv+SzLGYK2a1b5Zkx/jVn9vzxdqN+6zkqYxbPebI/SW9rH/LbvlSzKc2NV/KpeJ/RJ/Upq1THDPZOzpPWn1Lf7XH9PlsSUaMy4jPyvH7vvE6+D7lGCO5ZZSzfjs/vumlGNdHsWF9TGZmpMeExSG3q+eh12HpvMWkco/6KaZ5vGRHPeaW6/7omCP6a7Nb6q+HWX2msuzaVvlm7Rjn3lp77j87bVboa/LVC3U7kY07/9L+gk4TuTfR1Y6jYqMkkxLn+uRaStLm+7GCcS3e7ftxUVJSi2OWi5SP9ZL+vl37XOPZImOyNBe8H3vFhHxux1IXs03cZl+WY5Z6lf4o9SnHKvuV+tlY5cIZ2/c+W1/5QGOWepV9+7Hx7UrfSK4WnhjvdD/6aUmHLG9O/2XdTVZc7PNYZl9Pr2XZ3jet86Wxe77s+UwMtsaZvbakl8lq2X1eLEd1a+sUx7S4+bZ23pon7b5eHy8nX/csLMnw7ZJeIz6L3PU+R9lqV44xklvGOStlZ39o7HRcX4va/eTHtSf3ytetwtvrwXnbz22/GANpY9CaJ+0+bfnnxn9mjKO13azQ1ySKQbw8KO1EeF4gtoPtvPHb4O5Xlvk+FU/rCbifzFU8toqw2vYlOcl/LR4U1/yUwBapujDp27E27nLsSv5NlopcLRw2N0bGKduUtuSY9Ivbsr/aSZ/a56VtabzU9sNf/7z5lGmtf7pf2pzl94qH1Kcfm9xftrRY6smO13u6ebt6baIs9eldt/sxHt6efG5jlsyKq9HYSZ98bM2XPGZP73jdPpe65TGyvPFr6z5p8SB/aJ1p+Wxch6h321fRF5Kfrq/Pk7ZMyWjns/jtTs9X9fURn+Wxo/3l57bd0R7TYY3Ptqxopz4vcxYZGLUntRvtuy1XpV9n9D1GW2NmbYM1aiuxmedps0I/BSklGb8L1qRae5K1HOCYWOaNjPJNz0t+CehyHaJOe/0sX6Wd+HIc60Un22QxbBVnuU32qY3ZS/ZxYbHP9hViLvQtGXidc7v2orSkf9atpW+6JtZ9Ma9xpEtZnHjdovxSF1sk5Y/Sl1F20qVsn2SbPOnTs0HXZct6zKPe+bNk+JhnlnKcNGY6pvvrOpa+8f1VNPkxpUfJrsmIC0/ypWKkfl7Wkv6KQzlO9sfafbOjjK3sSb++tO6XPFbLJz29NIa3U7b7PjVTvfHGry/P8zYP0k1xEtt+3SntH9dHvvB2azx/TfJ1b3meiLU2860xk/xYGIufbLfaKC+Yna05JD19X9mwdIw6pLYWM2/LaG6JbOecWfrW2sV4xl/dWWMn6Zp8Vspu+yzZGX1T2znDEW3FldiL8dT9c442F0ruz5HzSH02LfST42yC5Pfm4kSbd65N/MvllJMvTe7zF89S1rxN99NfC0wsimRzjLcV3Bb/nDzrJK/+7aMWxx5HWgzsfmLD9PQLkJJ6lpH0Sfr6uI/pvx4vJTSzuVz85MPsj7zIeX9lH1t/FV+24Cqx1b6U/Cyr9IOKIW932++yU/7XmLo+d4x6pTjF4sE+5xhlG8qN0HicSjaSPO93b3eUKX+rzYj+apuO0ZbobzHibcwxN9+Wbcz/SW6U5cddPjd/LOfPdZ+ZbZfxUOspznL8vZ5xrqb+8k+MaYxl8nGMZz1+5Ln2wxI/mlcxhvU4tdysfzs+5u9yHkceW8XTjM9qPUt/RJ6TL2oOy1y3LHPJD37sZS40xoh+dZvSp5IV+ant9PpxLr+tHVs8rvVZu2/zYOtcdOyYbl7orwVp/n47Ec7LOXYg8Qfx3Y6BmcUbv2/nd3x5W1/OrjXHnietzcZt48P8wP96LZRCf4YFCv1nJI8ZYGh7fF56T02J/fFj/9gxniv0jz5PKPSZ73vMBzzRn+eSQp9C/8I/RDYP3R6TBzopjlbszL/2oP4cYeleGZgp9I8/Tyj075XjY+tNoT8fXwp9Cn0KfRj4/t3n895tnk88FMP4bH8MrBf6eor/CPOEQp85ur85yqs758TkDgp9Jts5gaUP3MAADMAADMAADMDAYzMwXOi///77J/7hAxiAARiAARiAARiAARi4DwYo9NnAsIGDARiAARiAARiAARg4IANDhf6f//mf8x4373HDAAzAAAzAAAzAAAzAwB0xQKF/R8HiPbvHfs+O+BN/GIABGIABGICBGQYo9Cn02ZnDAAzAAAzAAAzAAAwckAEK/QMGdWanR1ueDMAADMAADMAADMDAMRmg0KfQZwcPAzAAAzAAAzAAAzBwQAYo9A8YVHblx9yVE1fiCgMwAAMwAAMwMMMAhT6FPjt4GIABGIABGIABGICBAzJAoX/AoM7s9GjLkwEYgAEYgAEYgAEYOCYDFPoU+uzgYQAGYAAGYAAGYAAGDsgAhf4Bg8qu/Ji7cuJKXGEABmAABmAABmYYoNCn0GcHDwMwAAMwAAMwAAMwcEAGKPQPGNSZnR5teTIAAzAAAzAAAzAAA8dkgEKfQp8dPAzAAAzAAAzAAAzAwAEZoNA/YFDZlR9zV05ciSsMwAAMwAAMwMAMAxT6FPrs4GEABmAABmAABmAABg7IAIX+AYM6s9OjLU8GYAAGYAAGYAAGYOCYDFDoU+izg4cBGIABGIABGIABGDggAxT6Bwwqu/Jj7sqJK3GFARiAARiAARiYYYBCn0KfHTwMwAAMwAAMwAAMwMABGaDQP2BQZ3Z6tOXJAAzAAAzAAAzAAAwckwEKfQp9dvAwAAMwAAMwAAMwAAMHZIBC/4BBZVd+zF05cSWuMAADMAADMAADMwxQ6FPos4OHARiAARiAARiAARg4IAMU+gcM6sxOj7Y8GYABGIABGIABGICBYzJAoU+hzw4eBmAABmAABmAABmDggAxQ6B8wqOzKj7krJ67EFQZgAAZgAAZgYIYBCn0KfXbwMAADMAADMAADMAADB2SAQv+AQZ3Z6dGWJwMwAAMwAAMwAAMwcEwGKPQp9NnBwwAMwAAMwAAMwAAMHJABCv0DBpVd+TF35cSVuMIADMAADMAADMwwQKFPoc8OHgZgAAZgAAZgAAZg4IAMUOgfMKgzOz3a8mQABmAABmAABmAABo7JAIU+hT47eBiAARiAARiAARiAgQMysNNC/4PTl9+9PL160/73+3/7i7cwfvDrn3fbpL6f/Oa907Nn754++9Pn3XbfvH5xev9tYMfG/Nlvf9WV9erNp6cXz38wPOaY/s9OY2OO6T82Jj5L/MCZn39iG85ybtnv3Byb5/vV/9mzMc7GcuNYPsNnab5rnuMzvwbA2csTtZJfD69TX17rG5WdFvrH/PrkWkFELrzAAAzAAAzAAAzAAAxEBij0D/g1TQwyn5n4MAADMAADMAADMPB4DOy00B/72nbsq9axryD5qti+luJ1p/z1HK/uZF/kr/SZm7y647ngFbfEQ/6nV1+YJ/cwT1j3jV3W/TyHb7nuX2sTttNC//F2XNcKMHJhCQZgAAZgAAZgAAYekwEKfV7d4X/ZwwAMwAAMwAAMwAAMHJABCv0DBpVd+2Pu2ok7cYcBGIABGIABGPAMUOhT6LODhwEYgAEYgAEYgAEYOCADFPoHDKrfyXHOzh4GYAAGYAAGYAAGHpMBCn0KfXbwMAADMAADMAADMAADB2SAQv+AQWXX/pi7duJO3GEABmAABmAABjwDFPoU+uzgYQAGYAAGYAAGYAAGDsgAhf4Bg+p3cpyzs4cBGIABGIABGICBx2SAQp9Cnx08DMAADMAADMAADMDAARmg0D9gUNm1P+aunbgTdxiAARiAARiAAc8AhT6FPjt4GIABGIABGIABGICBAzJAoX/AoPqdHOfs7GEABmAABmAABmDgMRmg0KfQZwcPAzAAAzAAAzAAAzBwQAYo9A8YVHbtj7lrJ+7EHQZgAAZgAAZgwDNAoU+hzw4eBmAABmAABmAABmDggAxQ6B8wqH4nxzk7exiAARiAARiAARh4TAYo9Cn02cHDAAzAAAzAAAzAAAwckAEK/QMGlV37Y+7aiTtxhwEYgAEYgAEY8AxQ6FPos4OHARiAARiAARiAARg4IAMU+gcMqt/Jcc7OHgZgAAZgAAZgAAYekwEKfQp9dvAwAAMwAAMwAAMwAAMHZIBC/4BBZdf+mLt24k7cYQAGYAAGYAAGPAMU+hT67OBhAAZgAAZgAAZgAAYOyACF/gGD6ndynLOzhwEYgAEYgAEYgIHHZIBCn0KfHTwMwAAMwAAMwAAMwMABGaDQP2BQ2bU/5q6duBN3GIABGIABGIABzwCFPoU+O3gYgAEYgAEYgAEYgIEDMkChf8Cg+p0c5+zsYQAGYAAGYAAGYOAxGaDQp9BnBw8DMAADMAADMAADMHBABu620P/Zb391evXm5eq/fx5o84f//JvT7wfa/ct//ePqeK/efHb6ekDWv/733w3Ienn68t8/H2j396dvBsb8w398OiDr5ekWPvun79Zjic+8j+DMz//RuapJLfQAACAASURBVPkInDFPmCd+bvhz5klmg3U/+yIxwrqf/bFlrfTN6xen92+8ebjbQp+voB7zKyjiTtxhAAZgAAZgAAZgYIwBCv0b77QAdQxU/ISfYAAGYAAGYAAGYGCOAQp9Cn3eyYMBGIABGIABGIABGDggAxT6Bwwqu9253S7+wl8wAAMwAAMwAANHZIBCn0KfHTwMwAAMwAAMwAAMwMABGaDQP2BQj7gjxSaetMAADMAADMAADMDAHAMU+hT67OBhAAZgAAZgAAZgAAYOyMCuC/13f/qT8Jv0n55ePP8BIB4QRHboczv0Pfjrg1///O3fZRj5neBf/vEfir/h8Pt/+4tiHue5/tHpw3feKe7d2lbp/sXvfrwrvdb8Ir31O+qf/Oa9u9J/zT7u31/O8DFLfwtnJHf4Ptc5f/f02Z8+P93b/L6OL+6bqb37JObkuA5eS/+7KPRZoJh815oAyD2frdFC35Lb8ib9EQp92fjU+exW4zK3zp9bR/edcsdTz4WeX/emT09Prh9lTtnmkkL/2bMTC9RRoD6GHfGvMbcmqZjVU9RXb5YL3OMn7g9OX3738tTy1dPbbsn11ZvetwbX1VVs/P/2zq9lkuPY0/tJXmGQZMMgvKBjj9GBY43BDIzWlmShXTM7oAtJoAtp0dkdJH2AvdAcFhb2RvNte4kJ/d6MjMqsyu6u/lfvczFUV1VmZPx5MjKyuvqdcxc3x46r/vnpq4qjfP38cT1vftFTuTqOYuvFrr5+Xt1uwffiqX6C7nOvx1Lsozxc97/bKS5+3eXluS45+br5zeU+9HwNr+eZQxT6918va1KSOJl855l8PT9rEY8F4nRhUuFTL0DW9+nVvY5yPn+6n2qf9Px8+usqElo5RfFr3VvDX5fKZ8eOq/5506rCqlecreGza5Qhu+PmtfiIQn8pZua/FjPu13ahHYtwzeFahgr7F7++glPO43xW31ahf3fneb6We/qctOQv7m8xBhT6FPq8g3/PwDUkOS8ApwuQFncvYk+zSKio0DcEuWC2hcsXprKwWdvczvyoQlayYqFS+7mWlRfFcTmWoF1WSx8bUz6UTkuLbFmoX7x5578nt7anLBQar2W7+7ps5rLvY8FQ5Bf7sl/UPsuRrTqqXc9XbnPRq+W3XIQX/YqPyzjFH7Fd77Pb9Wz37KuPAldmt1/LMct+iL52/9tceu/NNz3SWz7KshQv+SqzGH2Wx5W9ut5iJce854Ny3ef5F1//6xv79XsSi5Ffqwt9jb2kv+las13H28af+mKak6zddEyfK9l39XjTnOFyfAzFx+2Y6lb8M8+WbFBsYj/pPY1TnVtNl+9++rfd5z9/cv+bPevr1/xde3H27Ku/hG8TTc4nO7uWfSE9pENLP7XhOB9j/DPiH2c65sZT+o139Cmqr6qoPiXsh8muF5laRrz3zpsfdPUWkLrfSCLQV9H1ovr0h7/dL24mMy7WWpxai5W3i4WBF6g50ahvff3R7vmPjxuc9JKVXy/FjQoNHaMexRe2gOdCr/hNMuu+H3z1l8ofpX2RW1+TnNqvKhhru13GXHGifrkAmvq7FGqKU62XjVU2DfGey4r6Ptp98erJ7nchd3khVvtGMub17/mpXHcmnu3++Nj+OILrYTpZQaZ7seBV8e7j15ypAPvmlRVpv30zZ+yz+d1lFRvc7rpwntrp8uf97zGfslXrJn/NH12W2W66eFFqcswvngNUqJqtX1bzpsVe0b+w19J3LOaav4Uxl59tdz8WpsSIdDcfSJb5dl63wsq875Svyrh1+7auWTfT3fQxPlwv85cX/bonznxD+Y83OcLssfblXusPe7gOxd5x22pb6Ic/5hjwOX4uzij0w2IJmHNgPtR7nvjjAhg5sYVFi2h7YTzUb2OJoFUM6SvokkTaNri+pbCa9lvSfUTH9tjRh/ocfalrOk51XdKtf19xKsWQiproi9JfhUZsL71UnIsBXW/1aV1Tez+2feUx7hVHrqdktzjVvbb+xc5al3Ld/VUK2U8/fnRfWJV79peS2vrH2EkXZ9P50ea4jktblsbIbC/5331Yxzfq1bN9et11Nj9bfxv3/V8LSM2fVgwkp7bRfOx2Zv0PjXlrDmXbFYPMQx5TumZ7cjvZtnxczhdZV5OZx6uLed+AfvPrxre+5/G2a2aDHc1mt79mIepu7XI84n0+l9yALw71xfJcWNO3FPoU+o0ntYfCu8V+vYLDbbVFQYWKT0wVL3p6PV+gzU1mlx2fpk39mxdByYuLVa+gyQt+Ppes/nEkWc37L8qOOsfr9nnuXm67fO46lWJxXv68X6ayeuPPy7HYtn3Vi3E9TruvtVked8pVlG3jq/Dx4vbTnQorZ8sZH+Gs1sX5ibLt6bEVYy6rfpovnWoWxvyvcWPRWsuZ94HGVoy8SDb9P9l98+r5rz/AdXviGKWfy5cepchux+2wmNf+1NhZVj5Xuxy/uRioz37Htq1RhvxTfOg2lbla+9hiaN8Iqb2dW1vX3bk0mdZG30b5GP1Cv+efqCefR+cL7dqsZK5P6ycKfQp9Cv1ZBuYXp7liQQulipcy4X2S++sG2hC0ixpfdEobLWiS1VuUol5ZRm/cvNBrjP5xJFnN+y/KjjrH63pSWhb745OijVU2aPM6qvgoxVkc3/uO6DYvx2S29WjFuBfTzIf5cXncaM/0s42lYlw6yheRmZ5O4s361Lo4P5Kt+WLtotyahfxK27j/a768n+zIY/TP6361b6bzwTkr8zf6wsdYN+bRh1F+5LOnk+tWCuCprCkbfT+12rZtrWXUTNS8mEy/L85dx/IwRTG2b1nK/K77TGXWujrHRWatX92We/jjMAamueIwOWP+p9CfLfLGnHjKACH70jGYm5Bz96S3L24qZg6Pp49li7EWOZPVW5S04Nl73HNFU9RnaQGMbf3zuP1R56kc91XUObeZu5fbjpzHImbJP/N+8fjGQqo3/rwc80G7EMox9vO8MWz3NV2WxxWr7aON1+M3+i5+HvOB8yPZozGpWRj3f9TPPx9SzPl47Q1CPR9Mz/r3Cq1YtON2aMzFhjYUdsxsZtm9WMV49Nrsd71ta5bh+vmGY6qr+7iXT8RGXejXXC/Nh+mYdf+sL+f4Z38G6lyxf//9fE6hT6HPE/0FBuLCEyfk0oLhbX1xUzET++//eZoc2otSvaCO6WmJw/vlwqCv51Sfadtal+n9krC0SMcfmap9Lwa6v/+x2Do3rsmd91+Rs6zDki9a993H+enklKdWX/ftvP7F/z395/wTi+eRceo2bptsqQvLnj35up+PMevjWZFoNo31qf1T61/f09Nml9vWa9o/2+My63ld+6nEKffN51k/P48xK7Kmbet4TO/P9W3fczuW/C4fffH1v7z5sXbdft5GsfrhVx+FJ/q17pLf3qzNv8bXtquWTxv8sczA2FxYljPmawr9hSJvLUcjZwzI6/STLy4qSFxHv1YWoelfxbB2vmDnp68jvpjK0wIVn2bVBYHLtcWuFIbxWvlavudn6RvHsA3Afn91J9o3vzBHPbRItwp9bUKyXfv/1Z2im/vJX6uo7S1tTD/5vV0YZA7qvtE+FYLZhtImF3R+7k9ny9Nn17vEUvrlb3skV/fb+s/p6/fm4pJlZ92kg451+9reXFg6i8VOk+Hyiy/ERZmH8/aI7/ykXfotHWv9p2MVX03/CpfssziVWLTnR57X2a/So475aPEgrqIfp7ZI36LrtM2Sv/L9bFe+7+fSz+dmPX7bX5Ij+U9nCn0x057z+8zn4/0hvTk+NF+OztV1/EKhT6HPE/0hBurFp15gfTLGxdfu+7/5xXQuwbfk1Yte2UiU8V50X7MoRY50a7fVAl9k1jZ40VFklHaxgFGCGlmY27KmC/FyDOb8me8VO+ti0tu53tG28jn6Y9/CYCq3jml933zgesYxsx/snvcrPqvlFN3N11GW4tQ/luJ12kaMRhvmOKvbux3aQCsec7LUtsTS7Rwt9DX+VM7UtjJGuaf+UcfYrvZVHQMb8703f6I0zpMcNx9LBav+bGnZJGqutGJeNqV1vK3PlPHWPI5+bMUj2nrI5yX/SWZhKLPa9lfd79nu0ELfbZ76SvI5lrmAL47xhee+ON9O6U8K/aEi75iA0veUAD902dOCAN4eOhPY358DKjTLhqjf9tb8KNumxYM2hrlovoztvsG4Dl3qGJ+3+KrHvkws0OFSfj8vaxT6FPo80b9hBij0L5WoGfcWi4Qtz5e5J/DXVFz3NySXnVPOBk/zb3Fe357OFPr3hacSQu9r0tsL7mUTGf7anv+3XLjA6/Z4vWRM5wrhS+q11thaL/MTfdmdr6817iFypNO1fLMifag1yDmH8Lx/Hwr9SaFf3jdkt70/UEzcLfuMQh++t8z3Grb5HPF327deyKnYL2vm9dptcTn0txJrcFFkeNF1LZuOohe5bWu+yL+LOdfm+6pf3dlakLGHxAUDMAADMAADMAADMHAuBij0b/j97HNBwjgkJBiAARiAARiAARi4PQYo9Cn071+VYgLf3gQmZsQMBmAABmAABmCgx8Biod/ryHWgggEYgAEYgAEYgAEYgIHrZYBCnyf6PNGHARiAARiAARiAARjYIAMU+hsMKjvr691ZExtiAwMwAAMwAAMwcC4GbqDQn/8vr8/lKMZhUsIADMAADMAADMAADBzOwPlrWgp9nuif4as6/zvF5W87r///Idjfp72Ov8k8ngD1n7Tcmt6HJ7hx39zOGGNsK9aaA+f6+8lr+1F2XBezdQxu1bdrx+ohyXMun+3ef+utM6xn58lj+j8RbuX/fvAY1Gv7FuNy/Lyi0G9M0vM75fhAnicR3KKerWSwhh0U+usxd4u+XIOhY2WMse1F6bUVo6MxdxtfXNGm2v2pjYeKI/7zo/XywbHzIvYf5Sz2Wfq81ZjLrlsu9O/u6vm5FMuHcf/8Ne1JnujbZLYnV+ssZud3yrXB1i4g3C8vX9c76GvTPevTtuX4RekUC0jW/aGc48vDeBxj+7YL/WubA9Ni6Dr9e21+u5Q+6+cWXwfXqTUOm/en8uWU7evSL9vdz3/bjVH2wdj5+WvaVQt9D/SL3acf/+fdl79cd6F/Pf/99vLkbU0g30zd3leVLVvGJse8n9ZfQObHW0Pna5WBLw+L/Rjb11mI3mrMVQyVJ/jX6d9rnevn1mttzmwdf/n69tbBEb+L7dt+ou+5tNSG7zTe2jgs34748Ng2p+Hrhgt9h1ITbs0d3PpOsWRj3ziUxeF6QTNQcwHh8PWe5Lu/9C7wNAmWhVCJRG2jP8pGqJYX25RJVLeZjln8m20pMkqbkWvugxdv4ij99fX93Z3rU86L7JxwjAV7GpR90Uqu4kbjxadI3t9i8t6bTa6+aVGfqIt0aMmZ2j7u22nfYrfdyz6b6l/7U/rZMepvsrK/pjEf46wtq8129lvRT3nH7c12tpmtfdPzneKnsaLPcp8xtotfcn+dZ/17Y2Z/tNrN6T+NYR3/GPORsUb1N/tcds32YXGq57p815q/0q93NF+ZDyXDPkcf1TI9juLCjll/yYsyrF0txzmci5P0zXLK2Hm+1H6t56brbbpqTPtc4ptlZTvzfR/LbJLfXK8yJ/t6O2+RM9k6dvSxs9/Vdx/Oiv2aA0V/ydNrKMXvaptjv+Szsdwjv5lvFSsbu+WvMf3n14C+nTnmrr/0q/3RbivftXQv44755bztNZd6dh2i8zy3p7Bv1Sf6RUE3pLXwlDajDlrTKWUCtpLt/rqN2nBcO5/EDpomV0t/3YuJzxNETFrFBypGzW4lCsktSbsAnttYv7Exi/3RlkP9PbXp7k0ijEnE9S+6a6zctyTQ4qNWX7sm30S7xbj74bPdN68+2T15/Nvd5z8/f/PZ7vdt9lhIhnTUUf6u7z/aPf/x8d5PRUZs0rjmk+hLXdfRZdUFi/sx+nuMM9uUffHqye534UfxU1lTPnubOe9bYtniU3YsHZdinvv341z414JXx1T35bOi/7yddQxs/MjoPvovxbzYOsfsmP7iZy7/lPHkm/7R5dnce37UK6Pug093X/74+H7OxvkcY/b0h7/tnjz+zf081Fyd5l4rBks8pWvsOxKnKcctX4/kY+9ndpmuNvb3rz7dfftGx7zWTtfxqf7exoq94h8fo5VDxjnrx1tsLM0319WLcc0LxUnnJst8azGXXM3RGDddizZJfpSl+Vp8oeI65sZl26TXt6+d6yJvGpMx/dt6mA2H6N/y41g89vdDicuY39Zvr7lW59vDx8nz7PR2PaBCXwmpJN3DA3X6wETdygTyp8VxMYnt2kk0QyVosx/qdnNJLI4/NmbxV7GlLJLRhqXPWvDq5DQt9NUu6qokHK+Z/rHgsPHVN4+RdfO+7kf18YRc+7iVFF2WtytJvPhJC0v7Xmw39rkdp3bf+bY1J8Unfr3oW/sgt4sxKPdcH/kytmnp5IyWhUP9cty8Xea9bXvWJZ/HmOd7Y2z3Y97rn/np2Zn1aZ339G/5t9V/jstR/UdzS3v8adzkDys2c+xHZVg7943zJJ87gx6zWORN5U7bRHlqL12X9MxxajEsHaOsdhzjnK3nZR2Leg63xpzG3/tk37T7TvO0/HLIsW1r4aO2Tdf78y/qkH3bjlvtL+vftntszDi+fdaYJae6DT5GyXu5n51n/e3akr+szZj+bXt8zL5esify2tL9Wq/5nMzf3oirfY5xPu7T7/C2D6LQF2A5GV0rUFkvTdre13bevgdPnpR+vuSL9oTPY+RzgZjH1HUloH4yyLbn87ZerSQ2tbOViFrJT7wsJaSoS92nHlvxm8rr+6mWV/yX/TF67rq2v/bNMlo+UZu+LTkGtQ/Uf+yYuWrLiv43uflcY7Xirnv7HntjmJyxcfox94WktSGp/TGnw5I9vb5zMa9lnkr/2sZ6zD7/4lGvDyivHTJ/og8k1+dsm7+sY+xv9/K5XRvVK8fJZNVPmFu89XwYYxY/a84oH3t/LyzrdtHW2q72mFl/9a/79uOq9v1jXz/1OUaHHKeaB+mdbe/rdIjdWQfZ1dZFOvmx1df9MbcGjOnfkm26uV5iqdbHdc/+arW57mvyYd58KTZjx/P7YbjQ90RT3kmzxBqfuNUGuiHHOUMBP94p0l2LQK2rxrGjg65FQ8dcoGmi6b4dW7I1bmzX91nUo/5cJpA/0W/5VZMvjhU/lz5uY0vf6Jd2kqxjMT5msafYctgT/bZe7UU1j2XxKH5wnexa9oXsquPutkef+uf6iX6rMBAvtTwbv59Ys+4xNod+lh6yIftCcls+0b05vZx3FapjnJlcJU/ppWOcK9K9+HCaY3z8OkdJVv7WRvbMH+djnvvO+aa07ce87/fa1n67Ms98vHH9x2Uer397DruuMebFZ9kundd+ESPG9VgsJMeP0QeS1ZrPppdyROHLuYu5JMqTLepXOLaxl+OkfsU/0/mlNlknnft8r+PnsVBxFv3Z0ynb6e2KXu7LdozbeVq+2e9Y29Hqu48OFiv5KR5LnKb+rn03F8fssx4/yp3uQ8Wz6NC/vqy/9xXXsrFeA8Zi3tNrec61WWnFrnVN40p3P9Y+s37ZRmsX56XL9njWspa/EfSYWzw1Z9yvLX37147zQ19uX5fhQn8/4W5IDVFfiXnZaznF5RwXoENtOK5fnECCPSdWLRbT63nsacJq+b+dJHMs8nkea3oebWmNu3StrVdvAYn6+eecNMcWY++bk0XURXFx+bWPlXjy2HOFfi1v6sclPy3d18LQmqMtn0jeXPzqfrUP1D8flThr38S4ue1qFxNz1j3GI4+z//lyzLPMOd+Utu6XrLvdr/0XY177Y8zO/fTvjx31sM+n0r+2sfgrj1/OW3NEnNg76PkJ+JLM6IN6ztYsa9wcw9i/F0/1LbyPxUn6RP5zPhpbA+r4ub9UtLgublfdru+7dtx6jGYf9eWWOLfbLOs3qoPplOuCXpyi/3OfubnRtmHexqkO3j7nmTH9p2N5v+lvKzLXWfdRvXK/MT6nek7lXKaN/LVcYy3p154zp7TzARX65nxPDjZZS6JdCsrl7+eJrcWstmE58TlI3m66SNR2tpNkBnR0zCI727Iv3K3+Sjwtm8wOu/7+3//cXPht8uZ+kif/+phTZqKP6j61j3v9xWM7scZFt/hvX3/NtW/Zbu2jXdP+mQHplq/XPpjKsX69NllWPteY9bHFRnvcul+rTS9mc74ZG78/Z3r98/WebtGOXpue/r3rUaZ/Pl7/9lhjMY76aM7VC6/rZzm+vr4c8zgfav/VnLr+Ko6L3Njf9Mzndk0675NbNE/aeaKMP9aujl9ti8dA47T0j/73z+24tWO8lFuiLcufl/Rr65D1rW2WfTlObVlTHZd0kvyRY9ZBfWyMsokd01998zHrm89zez/PPjQ/aN5N54Vk9OzR/es9yrZpDXCYzi3/TVk6THZbzgMr9N0JPlH2XwjWdPw+svJCb31lgxYMu6bFaX6Bqxetnh7txDYFdGzMAl/Llp4O7es5sfm5PcHLBbv1V3LpLfytxKY+8q3OtQCaXPlfCVdtvE/tY/lI8opd3i7KLfe0KGZOD/mrOzbO0/Tfw2c/5hjlcct9Z6NO6O6P+DVq7YNoV/zs/Yos+bGO17yfijxvp5iU60X30WvSI8YmxzzLGmN7zpaWz1pxkp3Fb6aLjS/G9tVfjM7nDvPj8fqP5pbs39Z5jzvjZ18OTJZyiPwxN5+LrxSP+hWBKE+6Ky77xqklSzLjUXoX3TL7dfzquVyzJl3jHIhj+Wfvk8drx3h0jco6t8/d1noORP1aOvR5KblLPjSGFKelsTTumM/a9kiGjpIlHey6dCvXxN68/j5vl9cAjTkfc61/ZUzn0/5601I8+vdl93Udne/ptzdjMWzb0p4z7bbHjFP6rljoyyH+Ppon2vK5gFkGHzPsNE6xJKCkPqbHvnqv176dZDTBSzIyOzRRa//HyeX9lmxvJcneV29LY7bvOxtLerRiU8tz2/rxlJ+iD0psWguo5EdmlWDlV1vYoo/qPrWP1VfyfLEpc0My7ag2slt9S5uSXNVm7Didn3lxjnLctqJjjtPSfRWEuV8cwz8rPhrL7JvOefm3+EHtp3Ft+Xdp4ZrqVRZVjZljbn36ek2LPsnJxzrm2R/9DVe2M9uY2WnpH+2ei2keK9qwr/5x3pTxpzEv98p8bV3Lupmdxfbx+WJyxKv6u231fDYdsq+sXexvbfK5XRMv0WcaSz5tx2k6f9U+yopj6L4fNU/cFrHiduiej6F7Jks5v5YV81Q7bu0Yexyz7+RzH28+1nWb9thqk8cxG9pj1b61Nu89/sPu25SPM2fySe2vEZ+N2jjNBe2Cc0z/ViyNNfmrHGt5srPmrNbN5DjbYinbWHNXxsrtrut8juPDbZjn9nC5fd+tWOj3BzlO8fM75Th9T+UH5B4WF08w7QSPTw/z6Xn9puJouqBqsRkv5m7BXnQ8L1/X729fA1s5zIvPXnG1fT96Ida2f80irednbdLaBfP2/T86d9xP7TiNythOu/PXtBT64T/q2Q5IJBjFUkVi/TQC/8g/t3DUYtqKoS/AFPq3EEd0PCzvKIe1ism5Qvdh+Lu/CVqv0O8/LJqLzcPw/wjTHqPpg5qRvltsQ6Hf/RqpleSYSFucBGvaRILZwhzRYpoXCm0A8vUt2IwNa+aBW5fVLmY1L1pP+h8SP/JDzgPrFfp6Jz0/kdY3ivn6rfO2pv79TdJDYrS2lUKfQp9vGBoM7Jd4lPjt3cKc/OsJt59c+l7OXzGmemfUjq2n/MTpcnHC96fyvRcHkX37zAMw97dv+utv9tYs9I3r1jv6D32TtTTfW3FZ6rP9+xT6Rxd524fkVAsJcmEHBmAABmAABmAABrbEwA28ow9wWwIOW+AZBmAABmAABmAABs7DwGKh/+GHH+7effddnrTzSg0MwAAMwAAMwAAMwAAM3BADFPo3FCx2v+fZ/eJn/AwDMAADMAADMLAFBij0KfTZmcMADMAADMAADMAADGyQAQr9DQZ1CztQbOBJCgzAAAzAAAzAAAwcxwCFPoU+O3gYgAEYgAEYgAEYgIENMkChv8Ggsvs9bveL//AfDMAADMAADMDAFhig0KfQZwcPAzAAAzAAAzAAAzCwQQYo9DcY1C3sQLGBJykwAAMwAAMwAAMwcBwDFPoU+uzgYQAGYAAGYAAGYAAGNsgAhf4Gg8ru97jdL/7DfzAAAzAAAzAAA1tggEKfQp8dPAzAAAzAAAzAAAzAwAYZoNDfYFC3sAPFBp6kwAAMwAAMwAAMwMBxDFDoU+izg4cBGIABGIABGIABGNggAxT6Gwwqu9/jdr/4D//BAAzAAAzAAAxsgQEKfQp9dvAwAAMwAAMwAAMwAAMbZIBCf4NB3cIOFBt4kgIDMAADMAADMAADxzFAoU+hzw4eBmAABmAABmAABmBggwxQ6G8wqOx+j9v94j/8BwMwAAMwAAMwsAUGKPQp9NnBwwAMwAAMwAAMwAAMbJABCv0NBnULO1Bs4EkKDMAADMAADMAADBzHwM0W+h989dHu5esXi//+x0Cbf/8//2X33UC7//l///vieC9ff777dkDW//p//3VA1ovdl//7+UC7/7b7fmDMf/+PzwZkvdjhs8IVPiu+ePkazmLOuda5+f2rJ7vfnfkBBvmYeRLnRvx8rfOEdT8yy7ofmV1z3b9EPs4bo5st9LMhnB+348N/+A8GYAAGYAAGYAAGtsUAhf6Zn3wxgbY1gYgn8YQBGIABGIABGLhWBij0KfT58Q0MwAAMwAAMwAAMwMAGGaDQ32BQr3VXiV488YABGIABGIABGICB8zFAoU+hzw4eBmAABmAABmAABmBggwxQ6G8wqOyUz7dTxtf4GgZgAAZgAAZg4FoZuOpC/+0//iH9qcrPdk8e/4YdJ5sTGIABPRvC5QAAHT5JREFUGFhk4NHuy1/qP6H36cfvHOw38jGFzLUWMugFm7fAwNMf/ln9ifPvfvrTwfl4H3tvotA/ZnHaxxm0JVnAAAxskQEV6cfk0jVkbNG32ETOgAEY2I+Bt3ef//x8R6F/d7djYWHy7Dd58Bf+goEWA2vk0jVktHTjGszCAAw8LAYo9O+/ymBhYfI/rMlPvIn3aRhYI5euIYP4nia++BW/wsAtMUChT6G/+O7tLQGNriRgGLg0A2sU6WvIuLQfGJ+5CAMwcHkGKPQp9Cn07xm4/IQkKRKD22dgjSJ9DRmwdPssEUNiCAPHMkChf1/ksbAcCxP9SUgwAAPr/N6JfMxcYi7BAAyswQCFPoU+T/TvGSCprJFUkPHQOVqjSF9DxkOPA/aTi2AABu7uKPTvizwWFiYESREGYOB4BtbIpWvIIJbHxxIf4kMYuHUGKPQp9Hmif88ACe3WExr6XwPDaxTpa8i4Bl+gA3MSBmDgsgxQ6N8XeSwsTMbLTkb8j/+3wcAauXQNGfC0DZ6II3GEgWMYoNCn0OeJ/j0DJJNjkgl94ccZWKNIX0MG8WBOwgAMwACF/n2Rx8JCQiAhwAAMHM/AGrl0DRnE8vhY4kN8CAO3zgCFPoU+T/TvGSCh3XpCQ/9rYHiNIn0NGdfgC3RgTsIADFyWAQr9+yKPhYXJeNnJiP/x/zYYWCOXriEDnrbBE3EkjjBwDAMU+hT6PNG/Z4BkckwyoS/8OANrFOlryCAezEkYgAEYoNC/L/K0sLx8/WLn/z7bPXn8m/v7wELCgAEYgIEeA492X/6i3OnHTz9+5+D8ST7u+ZnrzEEYgIFlBp7+8M9fa1nPx9/99KeD8/E+/v5PS40//PDD3bvvvnsWZZZ04f4ySPgIH8EADMAADMAADMAADBgDFPq8JsMmDgZgAAZgAAZgAAZgYIMMUOhvMKjs4tnFwwAMwAAMwAAMwAAMLBb6QAIkMAADMAADMAADMAADMHB7DFDo80Sfr+pgAAZgAAZgAAZgAAY2yACF/gaDyo779nbcxIyYwQAMwAAMwAAMrM3ADRT6/ifivvj69+w02ZTAAAzAwJ4MPPr7n3cvX6/1p4nJx2svwsijsIOBh8TA+XMohf6ei+YlJqT+fvUxfwP7UL019svXz3bvv/XWSYusMpb/jdnvXz3Z/e4G4nOob+nXTu7i4BK8bzEmFPptzrYY65ZN68b/Yfuy5d/ru+aF5C3lT/v78uf6m/KXjxeFfqOQPL9TLg9CnUwvWfho7HMU+tHvNvEp9GsOon+2/PmDrz4i9itucNct9MjHtzb31o3/9eQkyxPnXpeuP/b+P67e2tqpOuNhvLlx/hy68hN9N6D8T7YvdsfvKs/vlHNNZsEd/WWf885W7Y735fUk6SUfU+ifP1biLPPYSr7TtvU3Pr4Iv9jlvvqfAfP1wkN7vqtfrVs9ZpZhbafjKEfVfYs99fUi8/zxWGvsdQu9dnzW0vUa5GTWcj6+Bh330WHd+F/PPKDQn8bC2b3NHOacrlEzTv2yz3w5fdvz59AVC31XPhajWuzjtf2deBqnmG6X3vWquIj+0bX4pELXYrv9/Xjt8Nf6WcK6dHy27uNsX4szzeFYMOta5NEXmPIeuNrUMfS53C7APf69omTKg2RNFzWX8Wz3rDnH1a9eUKRvnHfZP+c4dz2mNh0zds+nh8ncbj6+u/OnoZkB81/k/zC/1fntnDLWjf/l7Mg+O8VcyWPc0nkrf9+S/qbrtW1UTsPYaXLoXKxXLPRbCcANOu6JyPpOcZhaT/taNpzuWm9iemIu+sV20t2KpVhEqVCJxZcHvv1VntrrCWmOkcbU/ThWC6gsb7owahH19+/nij1N+KUxW3pEm00H+cs+y6/THyY6Y7I1L/Qmw/wjG+1z9E/t8yyrFL/S1+VYMffO7vOfn+80brHXZZTzwqBsqMe0+/0+GnfpKJtq2Vmun/fiK53dZ/+2+/znT3ZPHv/mzSt5pvt3P9m1553CyRnJLJreJk+yZYfiUevrbUuMav+7jZ/tnn31l/DNmY37yZtrOfYa63xH9++U0cLAvro4M7Uf9pVR2vfif7h+cY6WcQ6Xd6iM/txq6yL+NH+nc8L7jbTLbfIcsPvOv/jwPNoaU/NYevkxx385H0duFCOXpY2oZOi8+Ek6tPRbio/6Fv2j/Nr+0kbrSmxr+uT22Q93v+Z169fLx7JL9mqsskZHm6b6q309tniTDTnmUebI51aOzP3mOJvvP533Wf+cO90PbnPkJ+fxqKN8dwg3Uc56n8VPHbvj5E99eZw88dk/PrBCv0zUXByc2tEt+YI666Lrgl3nlhBKMsiw+Hm570FXX8kyPXyy1+DatayHdJ5PAPJplveX+wLP5Dz94W/VuZJE1EvjeftpYRfvz392nb559cmbgtIXyU933775QXHtt5Z/PCmVBcPt/3T35Y+Pf90sfLYz2U8e//ZN0Sqft2xSYo2+1TWLZ7G/jp+3qX0qv+SEatc19jEFonwRddVCKRt7epkO8Z75zPrYNe9rMfGiX/dyDNvjO8ceg/rH2XG8Isv96DY4B8XHd79u0Myv7+2+/OUfb5g035mOPv7U50V2P5Gu20Zzqv7W4dAxnI217Krnz6E6eb917TxOlzKHIi89mcZjnIdit+4r+2rff/BVzI1qU/KN5lwsiJx1KxiLLM35OF/710o/s2kkH0tWve64vtJNbaIOJr89N5fnT8uPds1yb46FjxH9VsuXbjEm8mPUV9fm8vGoz6b6t+Lb8k+d/7Oty+fL87IVE7smX/j9nj9jXvU8Wsdkaqd8UfOzZGfN17LddcxP0162rZOPNb8jl6fRu/jmpIW+An2cQcsAjznJ5cTkPNavOGvt9vKPJprkK0Hputqp2FK7XPzkxcfatSZv7id5veNce9e1XkR6curr8xN6bsxaTis+mpietNwHmqR1ommPUzNnbbTAKjbOdLTBnwblGOl1AC2MpnutT9E/6qKY13On1qv2g9+L49T3yzi96xpT3Fk7t12+8/PeGJEF61eK52e7Pz7+w+6bX/+Kku5lPcwvPdnRN9ZPuub2rkNZrNr9nFe7Z/61o9nsMg9hedm32daRc9OrLj4OGyfGZWTc+TZzDO6jn8u5pnysuWo+13xv+ULsxXli7XKuHfF7r41fL/OunTNyLDwf5RzUG6O2LeYyj6N0qHNQttN1qMds61GP12ZlTFfvm/1dy+/pMLWz7dv5XOdj9WSV/GPt5MfCS45b9Pdh+WfEbzkX1v6SntK99t9Ibsx2ap7UbGR+phzMx3XaPttxqvO18vHGCn0HZS5hjgWkPSnG+joUAi4XBfvIOEVb6VUSQClg4uRotTN98sTNE00LV5Rl/ZTYRv2Rx4m+mLsX27U+z/Wdu9eSVV+rk5TbqwQaF6YeW3X/qEvtY29nfnzv8R9231ZP6EtCyomr1qe0a9kQYzSSzGsZPdnt6+LMCx193azE732iL/JYxTePqtdzrI++XbE+dp6ZXEp+1qfWK34bUuzJsrPP/NxtMntNL/+m562rK/TNV5qrU38Vm3Mc8nn2Qb6/33lvzozrI84i2/vpMD7WIXLFsXibL3SLLtnPxuKSjc51Pcdc59rPOYe02sivcT2xdlmvnk+yvvJDlpf7Zxt6euR+rXP1Hakb2j7xeEhOjp2Nmfv5udaHEs+Wfvla9ln2hbXP/s/nkimdl/yt9vGYbYr39Nnb1K/86p4dfXz5wfnTRryn87R/2Zz27FmStXQ/jnnuz/LhMfl4aa07hU3DT/QdYC3+fmxNIldSRX4J+uHK1wnvEDnSfSnpqjBWgtcxTzwHsfbFsuxpAtFE0Dg65vHULl/PSUb6C8J64tbjZxvUp+Xf6TiSVRfErb66Jhtko449v/XH1Nhzx1qvOpE7T2ZvTyfpJp9EXeQ3j8W00M8xMvvr8afn8lE+5oRnekin3HaNc/lDNiipxXkefZHHLPr6K03q59dLMdOSkdtk2XWfehEqbVu5osTb2tXjePykZ7a/yJ1jTTKX8oGPJbZ0lK97YykGI4VPT0aJi/9Wotdu7HrLx/P+yXItlmZ/b+6X9mM+c/uW/L+fjq5DGT/qKv0Vw/qoQsn7Ls3XmuuoY82tc1DmkOtXx6LHbyv+alvrXsdEfl1iVLLUznSN/irxjPbNfXa7im7Zbu/b9onfyzpFHbyf4jSejyWz6OXMRVvVRjlFa3Js4+PXvEaZ8mPUeenznC9iX8VU49V8ut9tfGvnv6fy1y29Xx2H3jyQ/vKFzqWHyyr+13Udl+6rXe/o/Wv/Rv97vzK35Qs7Zl3zGCV2ff1zn+l5PW+n9+fmxmH3hgv9fZQRAAX2w5TzMddyipLHMQE6xo5p395EyL7utWstEnHC2+cp4FM9FK960pd2rXGk49w9tZH+Wf5c37l7kts/1ous+0Rxdw5clzG2oi5KIp4QfBzzsZ7otxJFjInpXOtT/Dy1J+rnn1vyp/3mZPbvKU5lDCXDkuCzLXHscs9fY+rN/+hP71/HK8rU59xHcYhj6FpM3OWz2+Btij2Sb8ep/X1fxX6n+mw2m/7RxkPGcpvF/7E2RSaPkeVyjtnAHOKLQ/o416UIKJzP/weCmdnW2P02tZ/bY9Ztevzm+KvdUj7WfCr5oBfvOH/987HMylfSQU+Wdd2ObZ+4jrKxpXvu5+fz80PyRn1W8k69eTK9czyiTYd+zjaNyFF+KTYVnkye+c7aWCztPNYS3rf2mXwkn+dz6bRk/9J9yTn3Uf46nu3i53PZsHqhv54zlFTWdIoKl5K0z+Xo1ji9iZDb9tqZr+Pk837ur08/rl+fyDLzeVuWx2Du3kiS7LWZkzt3L+s+PY8LjxYEJSX3jye3ut1UztR+LTyezLy/x2D+Hf2STLM+4rx9VIJ9/+9/rn78N9XV7Zry0JY77d8udGWvkptY1HmRE305P2dzbCVTC0SRWXTPffSkLBYA0zbeXzaYfGfx2gt996UVC3M+afmpdW3dhXM+tq3x+9fWtbM/TuHokDbOTInFqD97eS/q0JOVr7e5zbHI52a3fKz8188/ef64DsXuqHf+7G39tzjfhh8M53aHnGdfSEbvut+P+SjGf3p9JE69NrXPprKlazyO5LvYfuTzvC+i/fXnlv5ffP0v9384weTamvLk/o8qWH/nLK5ppmO2K5/LjnrMWh9r02Z92k7yTn/UHBqbC8v6tObpae1btdC3AK7xBKp21PpOOY2e+weqNxFq+6cTSPd7E0b2xSJIfTzxP929/1Z8GtWeuOrTG8fve988VvzLEp6E4pPJMnF6hen8mEu+rhNunaRrW6e6TWVHXdR+WujrSU2dDOqxXXbrmnydj2JkaV5Jr2OekGqsurhUrEpx7HyVwsF09mtqMz9ncyKP/s3267zVRjb7pmNuzBLzPLbk+3FOxpSLuu9a912HY+KY9XI/1fHKbcbP1/eRsxPzw1q+3E+OsVGzb/3d3jpPTedE23+KpeaF6xNzowrxWr73i4VUm9tpLOp5qN9x2V8cK/Gv543pJHvqp89qN/VJy6+yNf5luFa7+WutGGSb5Gvlq+gn3bNjS3/3Y/GFtWtdi3KirPKAo+2zVp7Ksuzcbar1aLUbvzZloe5r+i6v+65X5KDEdWp74Vq+jg8nFJ/Ij9rFa1M9nzceYM5zU8tYs63sP2es1tTfZa1W6CuoFujWv35gl4xaAnipf/u+Te46ubbbnQ6gfgGfx5Rvsw97SUWTqZcAtXjFOJVJ7H7w5NeOZW4bFwrJzG2yPLMl65/bSJYds7zso/rck7Dsd7maqM6T7lk/+TeOFwutqKd867HwcSJHul9klWQoHWt9lrjTgiL9e+3drqiLxhs9yg+ZM9kUY5BjVY87P2e9r/wy31a6xxjoWuHu2e5f33zj0feR9bfN6NOvPpr5ZmRMlzJ+LxaHX699c7icqKPHr++b2Hb582l8ZHbXDK1j+7I99TjOSZ33IvdRXqttzCveVvO3yJzKW27T5qIVi1qWjeXzuo6/yys6tfKx5n3OB9EH8bP8Mdo+9o2fJUc5dI4L6ai2+YHT0n0b131R+yfqo88jPmutrdIt+yXLs3ZztkqP3tH8Nt/feZE+dswsSqd4XfGo9a9l2bj59VWtJ3G8uK627FCfeqx6jrb6neqa+0Nr1Vp6tObtWrLbclYr9E/laE2cCN7pxmo76dbGU3K7lslya/67Ln194Z5P4LfLrbO6diK9XX+cgj338XIhMzb2+RepMb2I+aX95AXhQ57LPjdaudp9s9YcbLOuIvlaaiXps08dsrxZadt+afb3G//8OZRC/24L4NQ2PIzJUtu830S7nb6HJMvb8YVvYqZPQW8nPrfgawp9eDo9p+cvXk5v037cKFe3Cm1/MnzaQt/8cY4Nxajf5Y/RQv/hPKA8/1yh0N9YoX+uhDI62Wm332JR+8sTAoXwMT6kL4U+DNR5ZW1/bPtbx3Hfeb7OT/RV8Obr43L3iZde3br8Nyuye6TQV9vWJuk0ftrHp2u3pdCf/DfXvLozBpnv5O2dy9M/NdjexBvz8bnsVtKzdxsp8q8rNudiYM1xKPRhaE2eiiwvWCxPnaeIvYU4Fp/Ed9PPW8C6DiMFdonl+r7VOjaih9UvD2eto9BvFPrrA3hKuJFNvGAABmAABmAABmAABq6BgRt4dQdQrgEUdIBDGIABGIABGIABGLgtBij0N/aOPhPwtiYg8SJeMAADMAADMAADp2KAQp9Cn9elYAAGYAAGYAAGYAAGNsgAhf4Gg3qqXSFyeeIAAzAAAzAAAzAAA7fDAIU+hT47eBiAARiAARiAARiAgQ0yQKG/waCy076dnTaxIlYwAAMwAAMwAAOnYoBCn0KfHTwMwAAMwAAMwAAMwMAGGaDQ32BQT7UrRC5PHGAABmAABmAABmDgdhig0KfQZwcPAzAAAzAAAzAAAzCwQQYo9DcYVHbat7PTJlbECgZgAAZgAAZg4FQMUOhT6LODhwEYgAEYgAEYgAEY2CADFPobDOqpdoXI5YkDDMAADMAADMAADNwOAxT6FPrs4GEABmAABmAABmAABjbIAIX+BoPKTvt2dtrEiljBAAzAAAzAAAycigEKfQp9dvAwAAMwAAMwAAMwAAMbZIBCf4NBPdWuELk8cYABGIABGIABGICB22GAQp9Cnx08DMAADMAADMAADMDABhmg0N9gUNlp385Om1gRKxiAARiAARiAgVMxQKFPoc8OHgZgAAZgAAZgAAZgYIMMUOhvMKin2hUilycOMAADMAADMAADMHA7DFDoU+izg4cBGIABGIABGIABGNggAxT6GwwqO+3b2WkTK2IFAzAAAzAAAzBwKgYo9Cn02cHDAAzAAAzAAAzAAAxskAEK/Q0G9VS7QuTyxAEGYAAGYAAGYAAGbocBCn0KfXbwMAADMAADMAADMAADG2SAQn+DQWWnfTs7bWJFrGAABmAABmAABk7FAIU+hT47eBiAARiAARiAARiAgQ0yQKG/waCealeIXJ44wAAMwAAMwAAMwMDtMEChT6HPDh4GYAAGYAAGYAAGYGCDDFDobzCo7LRvZ6dNrIgVDMAADMAADMDAqRjYu9B/+sM/d198/fvhXZ+1//7Vk93vKKiHfXaqYCOXRAIDMAADMAADMAADD4eBoUL/0d//vPvupz+9KVQ/+Oqj3acfv7O7u3u0+/KXf+yePP7NTAFrbV782v7hOJUJRKxhAAZgAAZgAAZgAAYuzcBQoX939/bu85+f716+/mz3/Me/757/+Nfdy9cv7ov/nhG2KXj5+tnu/bfemtkMAEHPf1yHDRiAARiAARiAARiAgUMZGCz05WAv+PV0f37QfdpKPsd5n+If/AMDMAADMAADMAADMDDGwGCh336iP/euvr3uY98AzL/aM6YkwcRPMAADMAADMAADMAADMLAfA0OFfnxH335cO/KOPj/C3S8QgIu/YAAGYAAGYAAGYAAG1mRgqNCPA4791R1+hBt9xmcmLQzAAAzAAAzAAAzAwLkZ2LvQH1GQH+EC8ggntIETGIABGIABGIABGDgdAyco9P19/rn39wno6QKKb/EtDMAADMAADMAADMCAMbB6oc+PcAGL5AIDMAADMAADMAADMHB5BlYv9PkR7uWDysQiBjAAAzAAAzAAAzAAA6sW+m//8Q+7b1/zP+EysZhYMAADMAADMAADMAADl2Zg1UKfH+EC9KWBZnwYhAEYgAEYgAEYgAFnYMVCnx/hAhWJBQZgAAZgAAZgAAZg4FoYWK3Q50e4QH0tUKMHLMIADMAADMAADMDACf7qDk5lYsEADMAADMAADMAADMDA5RlY7Yk+wbx8MIkBMYABGIABGIABGIABGBADFPp3wCAYOMICDMAADMAADMAADGyHAQp9Cv0dE3o7E5pYEksYgAEYgAEYgAExQKFPoU+hDwMwAAMwAAMwAAMwsEEGKPQ3GFTt4jiyo4cBGIABGIABGICBh8sAhT6FPjt4GIABGIABGIABGICBDTJAob/BoLJzf7g7d2JP7GEABmAABmAABsQAhT6FPjt4GIABGIABGIABGICBDTJwcKH/9h//sPv29Yvdpx+/MwHD7z3bvf/WW5N72mFwZLcJAzAAAzAAAzAAAzAAAzUDj/7+5933r57sfje48ZiryQ8u9D/46qOkxNu7z3/+ZPfk8W92d3ePdl/8qqC1++6nP1HwDwYL2GvY8Qf+gAEYgAEYgAEY2D4Dj3Zf/uIPya1w//LHx29q56c//HP3xde/n62jpzV54eXAQt+UeTEZ2HYgL1+/2H330193X7x6uvvi1fPdy9ef/Vr8l0G3HyxsJcYwAAMwAAMwAAMwAAPjDFjBbnX0lz/+1f/98mL38vXSGzLtmlx+P6jQ94K+X8Av3dfgHMeDj6/wFQzAAAzAAAzAAAxsnwEv+JcKfPfDUs19QKFvr+g8b76O036iP6Yo4G4fXGJMjGEABmAABmAABmCgzUDrif78u/r9mlw+3rvQ77/wX97Rtzbf8I7+7PtUCgDHNuz4Bb/AAAzAAAzAAAw8HAbKO/r24Fy/b517R79fkxdu9i705174VzB84PaTfO1W7B2k6T+9DuTvG03vex8Zr28Qeu38LwL5bqfXpuyUxsYc039szDH973ZjY47pPzbmmP72o2v7rUbPt4rTmP5jY47pj88sJmIbnxmjyi0PgzNi/vBiTj72tYh1v6zJWoPH8sFYboSz03GmGtqOFjOt4fF6/mz11VK7PQt9L+yWfv2bFeG87KzwBb6AARiAARiAARiAARg4joGxmnyvQt93he0n9ccpS7DxHwzAAAzAAAzAAAzAAAyMMDBak+9R6PvXOvoqaESJVpux1zjGXgnh66j49TQ+s9dV9B+4wRmv7tSvlPHqTvQH86S83qCvvcfWE14L5LXAwo7PqYeVW3h15zyv7rTq5/raeE0+XOiPvPBfK8GODH/AAAzAAAzAAAzAAAzAwJoM7FOTDxf69qtfPflYU1lkAT8MwAAMwAAMwAAMwAAMjDGwT00+WOiPvfBPgMYChJ/wEwzAAAzAAAzAAAzAwP4M7FeTDxX6oy/8768sAcZnMAADMAADMAADMAADMDDCwL41+UChP/7C/4iCtAFkGIABGIABGIABGIABGNiXgf1r8oFCf18laA+4MAADMAADMAADMAADMHBpBij074Dw0hAyPgzCAAzAAAzAAAzAwPoMUOhT6O+YWOtPLHyKT2EABmAABmAABi7NAIU+hT6FPgzAAAzAAAzAAAzAwAYZoNDfYFAvvXtkfJ5gwAAMwAAMwAAMwMDlGaDQp9BnBw8DMAADMAADMAADMLBBBij0NxhUdtCX30ETA2IAAzAAAzAAAzBwaQYo9Cn02cHDAAzAAAzAAAzAAAxskAEK/Q0G9dK7R8bnCQYMwAAMwAAMwAAMXJ4BCn0KfXbwMAADMAADMAADMAADG2SAQn+DQWUHffkdNDEgBjAAAzAAAzAAA5dm4P8Dm1rXpbwQv6oAAAAASUVORK5CYII=;" vertex="1" parent="1">
          <mxGeometry x="80" y="50" width="532" height="412.61" as="geometry" />
        </mxCell>
        <mxCell id="OzfSqzoGwiIzfGWavnJp-2" value="" style="shape=curlyBracket;whiteSpace=wrap;html=1;rounded=1;flipH=1;" vertex="1" parent="1">
          <mxGeometry x="630" y="330" width="10" height="80" as="geometry" />
        </mxCell>
        <mxCell id="OzfSqzoGwiIzfGWavnJp-3" value="操作系统" style="rounded=0;whiteSpace=wrap;html=1;" vertex="1" parent="1">
          <mxGeometry x="660" y="340" width="120" height="60" as="geometry" />
        </mxCell>
        <mxCell id="OzfSqzoGwiIzfGWavnJp-4" value="" style="shape=curlyBracket;whiteSpace=wrap;html=1;rounded=1;flipH=1;size=0.5;" vertex="1" parent="1">
          <mxGeometry x="630" y="240" width="20" height="50" as="geometry" />
        </mxCell>
        <mxCell id="OzfSqzoGwiIzfGWavnJp-5" value="C" style="rounded=0;whiteSpace=wrap;html=1;" vertex="1" parent="1">
          <mxGeometry x="660" y="235" width="120" height="60" as="geometry" />
        </mxCell>
        <mxCell id="OzfSqzoGwiIzfGWavnJp-6" value="" style="shape=curlyBracket;whiteSpace=wrap;html=1;rounded=1;flipH=1;" vertex="1" parent="1">
          <mxGeometry x="630" y="100" width="20" height="120" as="geometry" />
        </mxCell>
        <mxCell id="OzfSqzoGwiIzfGWavnJp-7" value="Python" style="rounded=0;whiteSpace=wrap;html=1;" vertex="1" parent="1">
          <mxGeometry x="660" y="130" width="120" height="60" as="geometry" />
        </mxCell>
        <mxCell id="OzfSqzoGwiIzfGWavnJp-13" value="" style="edgeStyle=orthogonalEdgeStyle;rounded=0;orthogonalLoop=1;jettySize=auto;html=1;" edge="1" parent="1" source="OzfSqzoGwiIzfGWavnJp-8" target="OzfSqzoGwiIzfGWavnJp-9">
          <mxGeometry relative="1" as="geometry">
            <Array as="points">
              <mxPoint x="300" y="870" />
              <mxPoint x="300" y="870" />
            </Array>
          </mxGeometry>
        </mxCell>
        <mxCell id="OzfSqzoGwiIzfGWavnJp-8" value="dict_new()" style="rounded=0;whiteSpace=wrap;html=1;" vertex="1" parent="1">
          <mxGeometry x="192" y="770" width="428" height="60" as="geometry" />
        </mxCell>
        <mxCell id="OzfSqzoGwiIzfGWavnJp-15" value="" style="edgeStyle=orthogonalEdgeStyle;rounded=0;orthogonalLoop=1;jettySize=auto;html=1;" edge="1" parent="1" source="OzfSqzoGwiIzfGWavnJp-9" target="OzfSqzoGwiIzfGWavnJp-10">
          <mxGeometry relative="1" as="geometry">
            <Array as="points">
              <mxPoint x="300" y="1000" />
              <mxPoint x="300" y="1000" />
            </Array>
          </mxGeometry>
        </mxCell>
        <mxCell id="OzfSqzoGwiIzfGWavnJp-19" value="" style="edgeStyle=orthogonalEdgeStyle;rounded=0;orthogonalLoop=1;jettySize=auto;html=1;" edge="1" parent="1" source="OzfSqzoGwiIzfGWavnJp-9" target="OzfSqzoGwiIzfGWavnJp-8">
          <mxGeometry relative="1" as="geometry">
            <Array as="points">
              <mxPoint x="520" y="860" />
              <mxPoint x="520" y="860" />
            </Array>
          </mxGeometry>
        </mxCell>
        <mxCell id="OzfSqzoGwiIzfGWavnJp-9" value="pyobject_malloc()" style="rounded=0;whiteSpace=wrap;html=1;" vertex="1" parent="1">
          <mxGeometry x="192" y="900" width="428" height="60" as="geometry" />
        </mxCell>
        <mxCell id="OzfSqzoGwiIzfGWavnJp-16" value="" style="edgeStyle=orthogonalEdgeStyle;rounded=0;orthogonalLoop=1;jettySize=auto;html=1;" edge="1" parent="1" source="OzfSqzoGwiIzfGWavnJp-10" target="OzfSqzoGwiIzfGWavnJp-11">
          <mxGeometry relative="1" as="geometry">
            <Array as="points">
              <mxPoint x="300" y="1120" />
              <mxPoint x="300" y="1120" />
            </Array>
          </mxGeometry>
        </mxCell>
        <mxCell id="OzfSqzoGwiIzfGWavnJp-20" value="" style="edgeStyle=orthogonalEdgeStyle;rounded=0;orthogonalLoop=1;jettySize=auto;html=1;" edge="1" parent="1" source="OzfSqzoGwiIzfGWavnJp-10" target="OzfSqzoGwiIzfGWavnJp-9">
          <mxGeometry relative="1" as="geometry">
            <Array as="points">
              <mxPoint x="520" y="990" />
              <mxPoint x="520" y="990" />
            </Array>
          </mxGeometry>
        </mxCell>
        <mxCell id="OzfSqzoGwiIzfGWavnJp-10" value="new_arena()" style="rounded=0;whiteSpace=wrap;html=1;" vertex="1" parent="1">
          <mxGeometry x="192" y="1030" width="428" height="60" as="geometry" />
        </mxCell>
        <mxCell id="OzfSqzoGwiIzfGWavnJp-21" value="" style="edgeStyle=orthogonalEdgeStyle;rounded=0;orthogonalLoop=1;jettySize=auto;html=1;" edge="1" parent="1" source="OzfSqzoGwiIzfGWavnJp-11" target="OzfSqzoGwiIzfGWavnJp-10">
          <mxGeometry relative="1" as="geometry">
            <Array as="points">
              <mxPoint x="520" y="1130" />
              <mxPoint x="520" y="1130" />
            </Array>
          </mxGeometry>
        </mxCell>
        <mxCell id="OzfSqzoGwiIzfGWavnJp-11" value="malloc()" style="rounded=0;whiteSpace=wrap;html=1;" vertex="1" parent="1">
          <mxGeometry x="192" y="1150" width="428" height="60" as="geometry" />
        </mxCell>
        <mxCell id="OzfSqzoGwiIzfGWavnJp-17" value="" style="edgeStyle=orthogonalEdgeStyle;rounded=0;orthogonalLoop=1;jettySize=auto;html=1;" edge="1" parent="1">
          <mxGeometry relative="1" as="geometry">
            <mxPoint x="300" y="720" as="sourcePoint" />
            <mxPoint x="300" y="770" as="targetPoint" />
            <Array as="points">
              <mxPoint x="300" y="590" />
              <mxPoint x="300" y="590" />
            </Array>
          </mxGeometry>
        </mxCell>
        <mxCell id="OzfSqzoGwiIzfGWavnJp-18" value="" style="edgeStyle=orthogonalEdgeStyle;rounded=0;orthogonalLoop=1;jettySize=auto;html=1;" edge="1" parent="1">
          <mxGeometry relative="1" as="geometry">
            <mxPoint x="520" y="720" as="sourcePoint" />
            <mxPoint x="520" y="770" as="targetPoint" />
            <Array as="points">
              <mxPoint x="520" y="590" />
              <mxPoint x="520" y="590" />
            </Array>
          </mxGeometry>
        </mxCell>
        <mxCell id="OzfSqzoGwiIzfGWavnJp-24" value="请给我一个字典对象" style="text;html=1;strokeColor=none;fillColor=none;align=center;verticalAlign=middle;whiteSpace=wrap;rounded=0;sketch=0;" vertex="1" parent="1">
          <mxGeometry x="210" y="710" width="90" height="50" as="geometry" />
        </mxCell>
        <mxCell id="OzfSqzoGwiIzfGWavnJp-26" value="请给size字节的block" style="text;html=1;strokeColor=none;fillColor=none;align=center;verticalAlign=middle;whiteSpace=wrap;rounded=0;sketch=0;" vertex="1" parent="1">
          <mxGeometry x="210" y="840" width="90" height="50" as="geometry" />
        </mxCell>
        <mxCell id="OzfSqzoGwiIzfGWavnJp-27" value="请给我提供size字节使用的pool" style="text;html=1;strokeColor=none;fillColor=none;align=center;verticalAlign=middle;whiteSpace=wrap;rounded=0;sketch=0;" vertex="1" parent="1">
          <mxGeometry x="210" y="970" width="90" height="50" as="geometry" />
        </mxCell>
        <mxCell id="OzfSqzoGwiIzfGWavnJp-28" value="我要做个arena请给我256K空间" style="text;html=1;strokeColor=none;fillColor=none;align=center;verticalAlign=middle;whiteSpace=wrap;rounded=0;sketch=0;" vertex="1" parent="1">
          <mxGeometry x="210" y="1100" width="90" height="50" as="geometry" />
        </mxCell>
        <mxCell id="OzfSqzoGwiIzfGWavnJp-30" value="返回256K空间" style="text;html=1;strokeColor=none;fillColor=none;align=center;verticalAlign=middle;whiteSpace=wrap;rounded=0;sketch=0;" vertex="1" parent="1">
          <mxGeometry x="520" y="1100" width="90" height="50" as="geometry" />
        </mxCell>
        <mxCell id="OzfSqzoGwiIzfGWavnJp-31" value="从arena分出pool" style="text;html=1;strokeColor=none;fillColor=none;align=center;verticalAlign=middle;whiteSpace=wrap;rounded=0;sketch=0;" vertex="1" parent="1">
          <mxGeometry x="520" y="970" width="90" height="50" as="geometry" />
        </mxCell>
        <mxCell id="OzfSqzoGwiIzfGWavnJp-32" value="分配从pool获得的block" style="text;html=1;strokeColor=none;fillColor=none;align=center;verticalAlign=middle;whiteSpace=wrap;rounded=0;sketch=0;" vertex="1" parent="1">
          <mxGeometry x="520" y="840" width="90" height="50" as="geometry" />
        </mxCell>
        <mxCell id="OzfSqzoGwiIzfGWavnJp-33" value="空闲链表中分配对象" style="text;html=1;strokeColor=none;fillColor=none;align=center;verticalAlign=middle;whiteSpace=wrap;rounded=0;sketch=0;" vertex="1" parent="1">
          <mxGeometry x="520" y="710" width="90" height="50" as="geometry" />
        </mxCell>
        <mxCell id="OzfSqzoGwiIzfGWavnJp-34" value="0层" style="text;html=1;strokeColor=none;fillColor=none;align=center;verticalAlign=middle;whiteSpace=wrap;rounded=0;sketch=0;" vertex="1" parent="1">
          <mxGeometry x="192" y="1169" width="60" height="30" as="geometry" />
        </mxCell>
        <mxCell id="OzfSqzoGwiIzfGWavnJp-35" value="1层" style="text;html=1;strokeColor=none;fillColor=none;align=center;verticalAlign=middle;whiteSpace=wrap;rounded=0;sketch=0;" vertex="1" parent="1">
          <mxGeometry x="192" y="1045" width="60" height="30" as="geometry" />
        </mxCell>
        <mxCell id="OzfSqzoGwiIzfGWavnJp-36" value="2层" style="text;html=1;strokeColor=none;fillColor=none;align=center;verticalAlign=middle;whiteSpace=wrap;rounded=0;sketch=0;" vertex="1" parent="1">
          <mxGeometry x="192" y="915" width="60" height="30" as="geometry" />
        </mxCell>
        <mxCell id="OzfSqzoGwiIzfGWavnJp-37" value="3层" style="text;html=1;strokeColor=none;fillColor=none;align=center;verticalAlign=middle;whiteSpace=wrap;rounded=0;sketch=0;" vertex="1" parent="1">
          <mxGeometry x="190" y="785" width="60" height="30" as="geometry" />
        </mxCell>
        <mxCell id="OzfSqzoGwiIzfGWavnJp-38" value="" style="rounded=0;whiteSpace=wrap;html=1;sketch=0;" vertex="1" parent="1">
          <mxGeometry x="170" y="1400" width="410" height="340" as="geometry" />
        </mxCell>
        <mxCell id="OzfSqzoGwiIzfGWavnJp-39" value="小块" style="ellipse;whiteSpace=wrap;html=1;rounded=0;sketch=0;fillColor=#dae8fc;strokeColor=#6c8ebf;" vertex="1" parent="1">
          <mxGeometry x="210" y="1510" width="120" height="80" as="geometry" />
        </mxCell>
        <mxCell id="OzfSqzoGwiIzfGWavnJp-40" value="层次" style="ellipse;whiteSpace=wrap;html=1;rounded=0;sketch=0;fillColor=#dae8fc;strokeColor=#6c8ebf;" vertex="1" parent="1">
          <mxGeometry x="414" y="1510" width="120" height="80" as="geometry" />
        </mxCell>
      </root>
    </mxGraphModel>
  </diagram>
</mxfile>
